0
SECTION
2
HEADER
9
$INSUNITS
70
4
9
$ACADVER
1
AC1014
9
$HANDSEED
5
FFFF
0
ENDSEC
0
SECTION
2
TABLES
0
TABLE
2
VPORT
5
8
100
AcDbSymbolTable
0
ENDTAB
0
TABLE
2
LTYPE
5
5
100
AcDbSymbolTable
0
LTYPE
5
14
100
AcDbSymbolTableRecord
100
AcDbLinetypeTableRecord
2
BYBLOCK
70
0
0
LTYPE
5
15
100
AcDbSymbolTableRecord
100
AcDbLinetypeTableRecord
2
BYLAYER
70
0
0
ENDTAB
0
TABLE
2
LAYER
5
2
100
AcDbSymbolTable
70
2
0
LAYER
5
50
100
AcDbSymbolTableRecord
100
AcDbLayerTableRecord
2
0
70
0
6
CONTINUOUS
0
ENDTAB
0
TABLE
2
STYLE
5
3
100
AcDbSymbolTable
70
1
0
STYLE
5
11
100
AcDbSymbolTableRecord
100
AcDbTextStyleTableRecord
2
STANDARD
70
0
0
ENDTAB
0
TABLE
2
VIEW
5
6
100
AcDbSymbolTable
70
0
0
ENDTAB
0
TABLE
2
UCS
5
7
100
AcDbSymbolTable
70
0
0
ENDTAB
0
TABLE
2
APPID
5
9
100
AcDbSymbolTable
70
2
0
APPID
5
12
100
AcDbSymbolTableRecord
100
AcDbRegAppTableRecord
2
ACAD
70
0
0
ENDTAB
0
TABLE
2
DIMSTYLE
5
A
100
AcDbSymbolTable
70
1
0
ENDTAB
0
TABLE
2
BLOCK_RECORD
5
1
100
AcDbSymbolTable
70
1
0
BLOCK_RECORD
5
1F
100
AcDbSymbolTableRecord
100
AcDbBlockTableRecord
2
*MODEL_SPACE
0
BLOCK_RECORD
5
1B
100
AcDbSymbolTableRecord
100
AcDbBlockTableRecord
2
*PAPER_SPACE
0
ENDTAB
0
ENDSEC
0
SECTION
2
BLOCKS
0
BLOCK
5
20
100
AcDbEntity
100
AcDbBlockBegin
2
*MODEL_SPACE
0
ENDBLK
5
21
100
AcDbEntity
100
AcDbBlockEnd
0
BLOCK
5
1C
100
AcDbEntity
100
AcDbBlockBegin
2
*PAPER_SPACE
0
ENDBLK
5
1D
100
AcDbEntity
100
AcDbBlockEnd
0
ENDSEC
0
SECTION
2
ENTITIES
0
LWPOLYLINE
5
100
100
AcDbEntity
8
0
100
AcDbPolyline
90
1369
70
1
43
0.0
10
-6.1527813510221332
20
58.730308371630187
10
3.6962587606136346
20
52.983064373164488
10
13.365967781495197
20
51.664498000383318
10
13.363725152447937
20
51.656019504588457
10
13.35620964521401
20
51.613821470198133
10
13.353125651740656
20
51.564673673726809
10
13.356662564936311
20
51.502222822911314
10
13.3581699167934
20
51.490791228761836
10
13.359665003845432
20
51.479358026727624
10
13.361147813195464
20
51.467923227183363
10
13.362618373473046
20
51.456486851049291
10
13.364070524481519
20
51.445048117984342
10
13.365522842126873
20
51.433608061202492
10
13.366956578011129
20
51.422167011670567
10
13.368378058307313
20
51.410724424444197
10
13.369787253809919
20
51.399280319441722
10
13.371184169704119
20
51.38783470527634
10
13.383364265210956
20
51.326481108711988
10
13.398631162316242
20
51.279662963897721
10
13.416452437423654
20
51.240681441289098
10
13.436905225411548
20
51.204213977758229
10
13.4594667389668
20
51.172351460387347
10
13.484271438234686
20
51.141749424789573
10
13.510912251873648
20
51.114965941448169
10
13.539529581870358
20
51.089305067979396
10
13.569834500837239
20
51.066819732717846
10
13.601900477813674
20
51.045837864310414
10
13.635583244897029
20
51.027210309961326
10
13.670818079511733
20
51.011032758240866
10
13.707659139932129
20
50.996048021254261
10
13.745975472519696
20
50.983266984838586
10
13.785737287441684
20
50.972561376247455
10
13.826915089197039
20
50.963835429693944
10
13.869513225282899
20
50.956589753614296
10
13.913494785970759
20
50.950873614619105
10
13.958811329537431
20
50.946921396925326
10
14.005437374790922
20
50.94469623688915
10
14.089144351530594
20
50.939755638918022
10
14.173136259037545
20
50.930781903520582
10
14.257340231203656
20
50.91857520373128
10
14.341711958371285
20
50.903559222086663
10
14.426218623501084
20
50.886005410309643
10
14.510833441746417
20
50.866105447863397
10
14.595533245060906
20
50.844003021810302
10
14.680297197388176
20
50.819810473861423
10
14.765106113333776
20
50.793618266366067
10
14.849941977980004
20
50.765500974945262
10
14.93478767323877
20
50.735521264378121
10
15.019626725209672
20
50.703732511420256
10
15.104443227173316
20
50.670180853919007
10
15.189221661492711
20
50.634906495119118
10
15.273946893305897
20
50.597944891611434
10
15.358604038810874
20
50.559327521733906
10
15.443178448416987
20
50.519082511457
10
15.527655687512237
20
50.477235225724854
10
15.612021475396876
20
50.433808610421487
10
15.696261662153114
20
50.388823577134765
10
15.697702979063026
20
50.317283146776902
10
15.698750495209543
20
50.245735856145615
10
15.699404183871389
20
50.174183889077582
10
15.69966403233769
20
50.102629413063909
10
15.699530021782472
20
50.031074581172305
10
15.699002171490049
20
49.959521570813209
10
15.698080481121249
20
49.88797255857169
10
15.696764990377384
20
49.816429699608868
10
15.695055733342633
20
49.74489515955031
10
15.692952754127582
20
49.673371119996339
10
15.608300077628499
20
49.629167201519053
10
15.523536217020235
20
49.586522797069946
10
15.438675521381601
20
49.545458685577927
10
15.353732477153809
20
49.505997679097725
10
15.268721755522057
20
49.468165007503167
10
15.183658268321592
20
49.431988663483352
10
15.098557185046751
20
49.397499982585124
10
15.013433971811171
20
49.364734280882189
10
14.928304515137963
20
49.33373161920273
10
14.843185148358675
20
49.304537981423941
10
14.758092837925672
20
49.277206593838272
10
14.673045281826234
20
49.251799959140151
10
14.588061183183738
20
49.228392481034604
10
14.503160564696827
20
49.207074442480241
10
14.418365298697609
20
49.187957988110838
10
14.333699881788206
20
49.171186581169394
10
14.249192870976572
20
49.15695164964405
10
14.164879592779268
20
49.145524328492201
10
14.080808275895961
20
49.137327870047336
10
13.997059181306351
20
49.133161742628715
10
13.950414549457694
20
49.131367953334255
10
13.905063388701411
20
49.127835065506346
10
13.861030835482577
20
49.122525984253343
10
13.818367502664284
20
49.115674635928634
10
13.777110750939459
20
49.107329941243378
10
13.737251614491122
20
49.096992572336632
10
13.698818699976769
20
49.084566494851273
10
13.661840611940391
20
49.06992316597794
10
13.626457648819741
20
49.054072215582913
10
13.592604023805057
20
49.035757010076438
10
13.560345344004581
20
49.015072637772718
10
13.529833739699695
20
48.992868574649847
10
13.500980281872694
20
48.967473498011351
10
13.47409287112473
20
48.940937579144574
10
13.449006175558223
20
48.910566286414678
10
13.426150909147747
20
48.878913818051437
10
13.405361685682537
20
48.842637094718732
10
13.38718060889013
20
48.803822081097763
10
13.371481314131074
20
48.757147151896227
10
13.358734240616158
20
48.695908840694273
10
13.357231516287769
20
48.684476637690324
10
13.355716528518101
20
48.673046056416005
10
13.354189269151963
20
48.66161710750356
10
13.352649769444792
20
48.650189808692772
10
13.351091877506022
20
48.638764995440155
10
13.349533804355858
20
48.627338863008013
10
13.347957524824725
20
48.615916578651344
10
13.346369010163446
20
48.604495983395637
10
13.344768234640011
20
48.593077098855126
10
13.343155209953109
20
48.581659936446357
10
13.339040799230322
20
48.519244471122924
10
13.34167006196064
20
48.470070252222229
10
13.348794931500553
20
48.427804508993837
10
13.359112333592487
20
48.387286071355653
10
13.372658455806803
20
48.350669893650732
10
13.388697565964293
20
48.31469066939826
10
13.407498540111455
20
48.281924660806268
10
13.428499235492097
20
48.249731451670364
10
13.451951907701517
20
48.220168794516454
10
13.477494754252309
20
48.191602581080843
10
13.505208644028816
20
48.164892002628939
10
13.535055821247166
20
48.140146241284405
10
13.566763217059989
20
48.116136929742765
10
13.60046597850204
20
48.093874400247444
10
13.636102126634331
20
48.073242461593999
10
13.673618386826691
20
48.054156243363963
10
13.712889707695817
20
48.036132249790818
10
13.753893188369386
20
48.019227617929545
10
13.796642697337557
20
48.003681283975766
10
13.841104085900469
20
47.989464237179746
10
13.920680095534992
20
47.96302702609939
10
13.999487473334284
20
47.932620357768755
10
14.077662939228087
20
47.899035998110534
10
14.155273347568615
20
47.862694665471139
10
14.232357257855776
20
47.823867050075251
10
14.308938407029467
20
47.782745235955737
10
14.385031604881702
20
47.739474009484283
10
14.460645802763052
20
47.694167277316417
10
14.535785883543566
20
47.646917384398705
10
14.6104537463043
20
47.597801030380481
10
14.684649073469028
20
47.546883170298315
10
14.758369770691225
20
47.494219632301309
10
14.831612412213426
20
47.43985909242204
10
14.904372415939546
20
47.383844404998719
10
14.976644338468914
20
47.326213735029519
10
15.048421949922144
20
47.267001337082071
10
15.11969838357232
20
47.206238174711274
10
15.190466253139945
20
47.143952482554752
10
15.260717713787509
20
47.080170119940583
10
15.330444501847735
20
47.014914951106348
10
15.313320681883361
20
46.94543916065048
10
15.295814702218438
20
46.876058667360532
10
15.277927105696886
20
46.806775588984792
10
15.259658439213432
20
46.737592016904735
10
15.241009240425953
20
46.668510042276907
10
15.221980095574821
20
46.599531758755568
10
15.202571562708071
20
46.530659272099662
10
15.182784241670625
20
46.461894651013537
10
15.16261872488673
20
46.393239978830671
10
15.142075620057383
20
46.324697352630196
10
15.048866597445873
20
46.303909371892196
10
14.955953811513218
20
46.284656541216755
10
14.863356499761542
20
46.26695521941663
10
14.771094559821634
20
46.250823691844218
10
14.67918869291932
20
46.236282531867559
10
14.587660545990655
20
46.223354916092703
10
14.496532885452051
20
46.212067189847403
10
14.405829786796399
20
46.202449462311399
10
14.315576965613195
20
46.194536315132993
10
14.225802102564284
20
46.188367939289662
10
14.136535358634399
20
46.18399135668929
10
14.047810006183404
20
46.181462358290723
10
13.959663370387617
20
46.180847974986328
10
13.872138154353625
20
46.182230228324997
10
13.785284514871858
20
46.185711780791017
10
13.699163243510368
20
46.191424868515156
10
13.613851468447454
20
46.199547003961669
10
13.52945348643618
20
46.210330941914044
10
13.446125431083754
20
46.224173028624314
10
13.364151744058121
20
46.241824719768829
10
13.318632222437163
20
46.25216457017433
10
13.273911985972745
20
46.260489807512911
10
13.230005715047575
20
46.266758091069605
10
13.187022840497578
20
46.271182280012091
10
13.145012112657586
20
46.273799957836999
10
13.103835635838248
20
46.274131130117993
10
13.063496185003711
20
46.272075631845539
10
13.023988123405053
20
46.267501894128891
10
12.985708277529049
20
46.261348837126263
10
12.948267862122249
20
46.252419670295311
10
12.911754861310413
20
46.24078926075876
10
12.876536078580019
20
46.227238767299625
10
12.842093048945273
20
46.210176832106846
10
12.809253803601774
20
46.191504075463158
10
12.777161246964967
20
46.168660575560104
10
12.746892494964865
20
46.144002015719479
10
12.717422539166455
20
46.114342039925035
10
12.689814902380652
20
46.081555223863155
10
12.662570187631514
20
46.040533981097468
10
12.634407820600916
20
45.984681500307012
10
12.629997427522248
20
45.974027773713438
10
12.625575608712097
20
45.963378787569127
10
12.621142359615114
20
45.952734555351114
10
12.616697715539797
20
45.942095082826164
10
12.612235948445923
20
45.931462774147541
10
12.607773664246853
20
45.920829235440188
10
12.603294790537337
20
45.910204128067392
10
12.598804535536281
20
45.899583816477822
10
12.594302880909511
20
45.8889683329988
10
12.589789839513532
20
45.878357682439692
10
12.569661313622085
20
45.819133861378774
10
12.559473761675077
20
45.770954709604084
10
12.555416676265621
20
45.728285084413457
10
12.554895579592163
20
45.686476939900366
10
12.558503164433048
20
45.64760243277604
10
12.564683647874102
20
45.608697943645723
10
12.574363526265328
20
45.572182360190112
10
12.586316423844234
20
45.535650727337284
10
12.601318586103599
20
45.501025395849567
10
12.618597602878438
20
45.466821578050997
10
12.638453957996614
20
45.43384825726659
10
12.660879443175592
20
45.402220669061137
10
12.685292369402585
20
45.37082297658845
10
12.712084768778038
20
45.340596106964419
10
12.741166707512763
20
45.311443871370884
10
12.772464754700422
20
45.28329807881606
10
12.805732984458938
20
45.255724072340811
10
12.840964063981758
20
45.22878296976468
10
12.878233233297783
20
45.202701977201926
10
12.917499992508905
20
45.177461909402126
10
12.987522063278934
20
45.131329737934522
10
13.055774319628908
20
45.08156230153979
10
13.122593748860981
20
45.028889002169564
10
13.188153818795268
20
44.973698918517222
10
13.252561830426007
20
44.916243537712347
10
13.315890432076499
20
44.856702255373044
10
13.378191399757384
20
44.795211091812313
10
13.439502861441197
20
44.731877754990677
10
13.499853433700009
20
44.666790178420129
10
13.559264801904124
20
44.600021958509863
10
13.617753473744189
20
44.53163591954079
10
13.675331872492507
20
44.461686527107112
10
13.732009287421288
20
44.390221686641979
10
13.787792386663849
20
44.317283979969162
10
13.842685788004491
20
44.242911676962287
10
13.896692342205501
20
44.167139478993043
10
13.949813424623727
20
44.089999073534059
10
14.002049214511111
20
44.01151964197318
10
14.053398824682684
20
43.931728195295804
10
14.103860448168732
20
43.85064992105498
10
14.069338450781423
20
43.787973431480616
10
14.034471981166474
20
43.725487902580007
10
13.999262108239865
20
43.663195237469658
10
13.963709907030841
20
43.601097317897654
10
13.9278164327502
20
43.539196022395352
10
13.891582796695603
20
43.4774932224094
10
13.855010082254864
20
43.415990806149338
10
13.818099405941949
20
43.354690617661802
10
13.780851874832825
20
43.293594517311995
10
13.743268621838435
20
43.232704370913297
10
13.647855294051311
20
43.236748994020019
10
13.553125435924635
20
43.24219978556431
10
13.459101862191581
20
43.249067569457878
10
13.365808524085978
20
43.257364858271707
10
13.273270744083934
20
43.267106163880882
10
13.181515429513729
20
43.278308275151723
10
13.090571391080887
20
43.290990742271134
10
13.000469674701478
20
43.305176420487101
10
12.911244071453641
20
43.320892055285086
10
12.822931718978559
20
43.338169307886261
10
12.735573921963613
20
43.35704578645835
10
12.649217260617277
20
43.377566772941208
10
12.56391513355403
20
43.399787352043802
10
12.479730021916851
20
43.423775698961478
10
12.396736939555948
20
43.449617995581903
10
12.315028835133575
20
43.477426240315459
10
12.234726151187248
20
43.507351933528362
10
12.155995049681936
20
43.539612221697624
10
12.079088924309112
20
43.574549538987014
10
12.004477017009684
20
43.612816114194821
10
11.963184685875234
20
43.634584962356413
10
11.922142984176972
20
43.654200972947841
10
11.881355134968832
20
43.671619450228512
10
11.840981930013115
20
43.687017674707924
10
11.801080188024953
20
43.700419332604376
10
11.761392478894363
20
43.711396478142632
10
11.721895560429143
20
43.719851637200662
10
11.682549931818748
20
43.725659183855839
10
11.643981912740216
20
43.729623340028766
10
11.605506209701641
20
43.730688720361535
10
11.567227188733254
20
43.728904868080846
10
11.529701331206063
20
43.724931386742149
10
11.492015965554321
20
43.717365336047536
10
11.455462825904775
20
43.70782826035984
10
11.418551462072157
20
43.69406929808153
10
11.38293198892676
20
43.67808508858495
10
11.34678963104715
20
43.657063136950455
10
11.311636849231604
20
43.632538886707351
10
11.27470339728314
20
43.599966860020068
10
11.233044952145381
20
43.553306463761075
10
11.226027452321802
20
43.544157247296894
10
11.219000144029074
20
43.535015568052501
10
11.211963023663859
20
43.525881437474581
10
11.204916129358802
20
43.516754856055968
10
11.197854548259507
20
43.507639623889375
10
11.190792150995296
20
43.498523338480481
10
11.183715910741615
20
43.489419490664119
10
11.176629919043615
20
43.48032322262042
10
11.16953416534872
20
43.471234567324828
10
11.162428662733035
20
43.462153525195063
10
11.127657746816535
20
43.410157352961612
10
11.105347644990772
20
43.366256598766128
10
11.090385092065311
20
43.326090955574088
10
11.079061005836927
20
43.285842259355142
10
11.072484203265006
20
43.247358658158042
10
11.068384867201445
20
43.208180180341884
10
11.068283983874814
20
43.170403497998599
10
11.070374513867758
20
43.132023013017616
10
11.075903796320956
20
43.094694665169094
10
11.083741443796811
20
43.057184175389828
10
11.094387086735086
20
43.020195190358201
10
11.107862620446687
20
42.983841144131489
10
11.123317374945305
20
42.947194772150453
10
11.14137355592746
20
42.911063474576537
10
11.161919397508285
20
42.875377618441817
10
11.18486632247577
20
42.840090338524448
10
11.209864287331442
20
42.804845442686521
10
11.236922026531474
20
42.769703860856076
10
11.266171021344533
20
42.734865585364375
10
11.297567189322457
20
42.700322567674277
10
11.353263430209706
20
42.637639265826053
10
11.40630928778786
20
42.571902629464411
10
11.457219046861226
20
42.503729989301497
10
11.506260965530435
20
42.433452266881858
10
11.553603781522316
20
42.361284610911902
10
11.599364095081118
20
42.287381500442379
10
11.64362712553261
20
42.21186092089372
10
11.686457576006502
20
42.134817040528525
10
11.727905847807483
20
42.056327392820648
10
11.76801193603189
20
41.976457451135389
10
11.806808044454504
20
41.895263627150072
10
11.844320272917114
20
41.812795316249009
10
11.880569989759476
20
41.729096387664995
10
11.915574657442018
20
41.644206243032642
10
11.949348644069527
20
41.558160657225315
10
11.981903680250603
20
41.470992410939715
10
12.013249300170749
20
41.382731751600815
10
12.043393229205792
20
41.293406825314698
10
12.072341595802911
20
41.203043948898504
10
12.100099180632446
20
41.111667921765658
10
12.050531621646961
20
41.060062031672899
10
12.00068075260323
20
41.008729752293867
10
11.950548100526245
20
40.957672644408532
10
11.900135185736488
20
40.906892246912335
10
11.849443518333931
20
40.856390100625575
10
11.798474652670132
20
40.806167727988935
10
11.747230128988607
20
40.75622667053387
10
11.695711495347979
20
40.706568421780403
10
11.643920308140842
20
40.657194489914758
10
11.591858145709804
20
40.608106386714283
10
11.500742774213339
20
40.636707979946955
10
11.410651525640711
20
40.666490932003811
10
11.321609239997263
20
40.697459793668223
10
11.233642292575425
20
40.729620451459034
10
11.146778896482383
20
40.762980369335004
10
11.061049388678724
20
40.797548800812258
10
10.97648665609703
20
40.833337173176574
10
10.893126604064507
20
40.870359526015967
10
10.811008796231675
20
40.908632949859353
10
10.730177296111796
20
40.948178411178432
10
10.65068173584141
20
40.989021551751989
10
10.572578827708949
20
41.031194051722053
10
10.495934409945617
20
41.074735296338176
10
10.420826477287864
20
41.119694970646705
10
10.347349794505138
20
41.166136903779559
10
10.275623129077964
20
41.214145218808412
10
10.205802033098109
20
41.263835083873516
10
10.138103205100775
20
41.315373236922504
10
10.072860036042901
20
41.369024864540705
10
10.010694586004668
20
41.425298519666114
10
9.9764434497344983
20
41.457012854890195
10
9.9418772072823742
20
41.486582839975632
10
9.9069874029804588
20
41.513964468377161
10
9.8719752362599191
20
41.53928736533932
10
9.8369017176628688
20
41.562559704675508
10
9.8014074277256196
20
41.583434746461386
10
9.7654446905423669
20
41.601824358543482
10
9.7289428358831262
20
41.617617416637806
10
9.6927149881511472
20
41.631428635574338
10
9.6558260558923656
20
41.642415957721369
10
9.6183896637114934
20
41.65060022891214
10
9.5811140573115985
20
41.656474547852895
10
9.5427545512769001
20
41.658919992848318
10
9.5049785524000967
20
41.659168534295958
10
9.4657638323642921
20
41.65543176188531
10
9.427221044443769
20
41.649211199150436
10
9.3868693260674458
20
41.638259882850626
10
9.3465670031056796
20
41.623669487168669
10
9.3024617668727174
20
41.601766405438532
10
9.2501462000617103
20
41.567477922709848
10
9.2409998245297178
20
41.560456720599049
10
9.2318459256513492
20
41.553445337528828
10
9.2226845025814956
20
41.546443786924257
10
9.2135155907535005
20
41.53945205602453
10
9.2043354326455358
20
41.532475088905549
10
9.195154212793792
20
41.525497317117768
10
9.1859628400955824
20
41.51853514050083
10
9.1767640099005092
20
41.511582809483386
10
9.1675577204311249
20
41.504640357882622
10
9.1583439861520226
20
41.4977077851362
10
9.1113002615031196
20
41.456482714812111
10
9.0783880059601394
20
41.419852121557284
10
9.0535396558329797
20
41.384927684412666
10
9.0321842993480743
20
41.348981317510514
10
9.0158713064855611
20
41.313511215017414
10
9.0017715173760351
20
41.276728697406817
10
8.9918967460817854
20
41.24026533455114
10
8.9839824421259724
20
41.202651564953698
10
8.9796620307161348
20
41.16516406596601
10
8.9775241887435442
20
41.126903182295827
10
8.9782336362131634
20
41.088419271281573
10
8.9818408823097418
20
41.049816234593031
10
8.9872842505288624
20
41.010418571237707
10
8.9953737149821666
20
40.970845136553734
10
9.0059832932567776
20
40.93105759028559
10
9.0190153020778183
20
40.891033594601573
10
9.0340394295201936
20
40.850519688750765
10
9.0510798897480154
20
40.809572469976445
10
9.0703154404070947
20
40.768351083196023
10
9.0917014182150417
20
40.726859163688772
10
9.1292762223542052
20
40.651896496029508
10
9.1635006922702757
20
40.574670503488505
10
9.1950313667390162
20
40.495644373723366
10
9.2242130097630977
20
40.415068324139447
10
9.2512642942756873
20
40.333106498604224
10
9.2763378317481475
20
40.249877935599592
10
9.2995464707620883
20
40.165474541407207
10
9.3209770850839053
20
40.079970531369675
10
9.3406984260156758
20
39.993427751805541
10
9.3587660706395397
20
39.905899092464267
10
9.3752257255133014
20
39.817430709629093
10
9.3901153852452595
20
39.728063559401519
10
9.4034670477807367
20
39.637834485383081
10
9.4153077739375544
20
39.546777027511887
10
9.4256607020541932
20
39.454922023289285
10
9.4345456518561388
20
39.362298098922764
10
9.441979655977514
20
39.268932006195463
10
9.4479774620591481
20
39.174848929842142
10
9.452551804598988
20
39.080072704713857
10
9.4557137157237463
20
38.984626047192535
10
9.3944785442664553
20
38.947607615492615
10
9.3330405311200213
20
38.910926793806723
10
9.2714015551611002
20
38.874584700190695
10
9.2095634841978082
20
38.838582425396865
10
9.1475281765539922
20
38.802921067740812
10
9.0852975267166105
20
38.767601692996642
10
9.022873419916408
20
38.73262539456988
10
8.9602577409017208
20
38.69799321412804
10
8.8974523833083339
20
38.663706203031751
10
8.8344592587705169
20
38.629765417329047
10
8.7538512056772042
20
38.680974826793914
10
8.6745381361507583
20
38.733060280271481
10
8.5965452248496703
20
38.78601974278638
10
8.5198994691518024
20
38.839852074686689
10
8.4446300534392513
20
38.894557182801478
10
8.3707686763011644
20
38.950136152420114
10
8.2983500613783772
20
39.006591510854626
10
8.2274125246508287
20
39.063927525988163
10
8.1579987036609687
20
39.122150468626387
10
8.0901565891857778
20
39.18126918288614
10
8.0239407578761206
20
39.24129559154602
10
7.9594141879005456
20
39.302245619180958
10
7.8966506681130983
20
39.364140267494946
10
7.8357383963678471
20
39.427007341067693
10
7.7767854268973489
20
39.490883967689484
10
7.7199282553865967
20
39.555820666608348
10
7.6653469383786152
20
39.62188841822212
10
7.6132939482377946
20
39.689192198523259
10
7.5641599489253473
20
39.757901865112487
10
7.5186774295473588
20
39.828347645021339
10
7.4938016457946608
20
39.8678461867989
10
7.468066494506659
20
39.905355000555275
10
7.4414524182120791
20
39.940833768222276
10
7.4141873102586073
20
39.974355625416223
10
7.3863322166643064
20
40.005912672564314
10
7.3574502255270993
20
40.035263014229223
10
7.3274724698966516
20
40.062333854929371
10
7.2963019298303591
20
40.087036153577401
10
7.2648831238778264
20
40.109753223398464
10
7.2320948781960661
20
40.129913720579928
10
7.1980523461045873
20
40.147508370366921
10
7.1635672604877314
20
40.162830162912648
10
7.127147750590388
20
40.175120453148701
10
7.0907232643545441
20
40.185137673729933
10
7.0518776054081735
20
40.191677744028638
10
7.0130381318053612
20
40.195644750471345
10
6.9712269555435382
20
40.195510384584672
10
6.9285216285105964
20
40.191848152693268
10
6.8802503077389057
20
40.182106675300801
10
6.8208428372380689
20
40.162526809411652
10
6.8101908964155777
20
40.158112106221097
10
6.7995342294276622
20
40.153708833221692
10
6.7888728394795814
20
40.149317004656211
10
6.7782067584338854
20
40.144936600151226
10
6.7675336342807837
20
40.140573367961601
10
6.7568592768851108
20
40.136209631329017
10
6.7461791478625601
20
40.131863588834719
10
6.7354943645251222
20
40.127528984120609
10
6.7248049348116865
20
40.123205854371101
10
6.714110868462889
20
40.118894194553064
10
6.6580002850489697
20
40.091249645141133
10
6.6167287938796884
20
40.064385528333382
10
6.5836880199536711
20
40.037082338093548
10
6.5537567268847017
20
40.007887987012452
10
6.5288192468260009
20
39.977848611198482
10
6.5056798800085414
20
39.945968721609397
10
6.4867041709999631
20
39.913303598442049
10
6.4693243799378211
20
39.87901985752621
10
6.4554487048836791
20
39.843927919778238
10
6.4434810625408314
20
39.807524058163054
10
6.4342059675308692
20
39.770167836398699
10
6.427699098255407
20
39.731946541712581
10
6.4227601221152408
20
39.692482475668498
10
6.420331585813118
20
39.652163762849668
10
6.4202818766790397
20
39.610985984053784
10
6.4225108577565182
20
39.568952841179048
10
6.4265372813849204
20
39.525930883297605
10
6.4323991811167422
20
39.481968511162243
10
6.4403104166844116
20
39.437173181985116
10
6.4502287870839705
20
39.391559967748073
10
6.4671214949313995
20
39.309426515436932
10
6.4801922359054185
20
39.225973990590532
10
6.4901950616010282
20
39.141479872027382
10
6.4975277479682267
20
39.056096619450798
10
6.5024440008941307
20
38.969926188278279
10
6.5051220400434042
20
38.883044059762582
10
6.5056946582239386
20
38.79550980447884
10
6.5042649761512541
20
38.707372621783236
10
6.5009154092879973
20
38.618674457077425
10
6.4957133293353841
20
38.529452014258631
10
6.4887148331893698
20
38.439738046361406
10
6.4799672198172731
20
38.349562280209071
10
6.4695109313004817
20
38.258952022394141
10
6.4573807907890419
20
38.167932667036347
10
6.443607128372042
20
38.076528011476441
10
6.428216493942525
20
37.984760576706314
10
6.4112322676123137
20
37.892651793354666
10
6.3926752113756882
20
37.800222174182096
10
6.3725637951347567
20
37.707491444873035
10
6.3509145550656818
20
37.614478690165697
10
6.28218484468597
20
37.59457045912518
10
6.2133465859926096
20
37.575040834445275
10
6.1444018803559244
20
37.555890407318742
10
6.0753528176784819
20
37.53711975080482
10
6.0062014730005711
20
37.518729443195575
10
5.9369499548997231
20
37.500720025758248
10
5.8676003661524803
20
37.483092064024127
10
5.7981547957795874
20
37.465846075518769
10
5.7286153473344426
20
37.448982589243634
10
5.6589841395704479
20
37.432502127645186
10
5.594376709948242
20
37.502829518556801
10
5.5312468763660858
20
37.57366793640476
10
5.4696184248040112
20
37.645008899114629
10
5.4095171422592632
20
37.716844319920625
10
5.3509711936090563
20
37.789166555113496
10
5.294011477438243
20
37.861968448440464
10
5.2386721908142855
20
37.935243454858188
10
5.184991444618837
20
38.008985778109768
10
5.1330120481718486
20
38.083190439475928
10
5.0827826457058052
20
38.157853563770921
10
5.0343590429364307
20
38.232972541144946
10
4.9878061904394428
20
38.308546451472424
10
4.9432007996236527
20
38.384576485566356
10
4.9006352583724979
20
38.461066671063278
10
4.8602235515674916
20
38.538024906733689
10
4.8221105950806535
20
38.615464659835496
10
4.7864886826406616
20
38.693407892062147
10
4.7536288565588478
20
38.771890656826415
10
4.7239524285180936
20
38.850975913417571
10
4.6982523966428404
20
38.93079305419554
10
4.6844472102166854
20
38.975384041344412
10
4.6692969574457894
20
39.018275520179941
10
4.6527723161585524
20
39.059433609048028
10
4.6351123381336459
20
39.098869964969019
10
4.6163739494936458
20
39.136561160969556
10
4.5960725140995526
20
39.172386622097036
10
4.5741226764120979
20
39.206293862127573
10
4.5504076710249777
20
39.238221979300654
10
4.525939044482489
20
39.268296768663987
10
4.4994859519271211
20
39.296256536461513
10
4.4711572230120229
20
39.322062517556915
10
4.4418127592806469
20
39.345787630703157
10
4.4098151756570454
20
39.367085202372991
10
4.3772244720618527
20
39.386188444814501
10
4.3413951417586212
20
39.402559664045633
10
4.3049058258939459
20
39.416443893612019
10
4.2644845555556152
20
39.427135635142029
10
4.2222865224613066
20
39.434651141602608
10
4.1731387259759503
20
39.437735135077823
10
4.110687873626965
20
39.434198221465003
10
4.0992562810189286
20
39.432690870031138
10
4.0878230786800236
20
39.43119578333679
10
4.0763882794385706
20
39.429712973615061
10
4.0649519029687884
20
39.428242413581643
10
4.0535131702395137
20
39.426790262329007
10
4.0420731134656478
20
39.425337944689709
10
4.03063206392574
20
39.423904208799399
10
4.0191894766933407
20
39.422482728511191
10
4.007745370565388
20
39.421073534489459
10
3.9962997575334089
20
39.41967661712043
10
3.9349461609690719
20
39.407496521613595
10
3.8881280161529022
20
39.392229624494298
10
3.8491464935461939
20
39.374408349400895
10
3.8126790300134235
20
39.35395556139899
10
3.7808165126444622
20
39.331394047857763
10
3.7502144770466512
20
39.306589348589874
10
3.7234309937112893
20
39.279948534942896
10
3.6977701191030872
20
39.251331206428986
10
3.6752847849749273
20
39.221026285987286
10
3.6543029166155332
20
39.188960309345873
10
3.6356753622104367
20
39.155277541921464
10
3.61949781038268
20
39.120042707688377
10
3.60451307237792
20
39.083201648367243
10
3.5917320370956847
20
39.04488531430485
10
3.5810264284965654
20
39.005123499376836
10
3.5723004810158665
20
38.963945698765961
10
3.5650548046573727
20
38.921347562551574
10
3.5593386666128746
20
38.877366001096703
10
3.5553864488301103
20
38.83204945762327
10
3.5531612890854287
20
38.785423412427633
10
3.5482206911751035
20
38.701716435293932
10
3.5392469546442671
20
38.617724529261793
10
3.5270402547258985
20
38.53352055625632
10
3.5120242743437604
20
38.449148828453254
10
3.4944704606235995
20
38.364642163524209
10
3.4745704988267425
20
38.280027344860962
10
3.4524680736729141
20
38.195327541955002
10
3.4282755243751906
20
38.110563589939055
10
3.4020833172855935
20
38.025754674032214
10
3.3739660266169889
20
37.940918809003556
10
3.3439863148779669
20
37.856073114123262
10
3.312197562519442
20
37.771234062700657
10
3.2786459047656753
20
37.68641756086285
10
3.243371546208389
20
37.601639126868413
10
3.2064099427007262
20
37.516913895055232
10
3.1677925713949131
20
37.432256748339135
10
3.1275475611179875
20
37.347682338733023
10
3.085700276874678
20
37.263205100769277
10
3.0422736600824041
20
37.178839311753137
10
2.997288628276586
20
37.094599126122368
10
2.9257481967365702
20
37.093157808279948
10
2.8542009057460587
20
37.092110292020081
10
2.782648939876549
20
37.09145660443739
10
2.7110944627328379
20
37.091196754818355
10
2.6395396313833435
20
37.091330766591931
10
2.5679866210460824
20
37.091858615973521
10
2.4964376093288445
20
37.09278030707879
10
2.4248947504006138
20
37.094095797960748
10
2.3533602084050127
20
37.095805055204004
10
2.2818361698362426
20
37.097908033442522
10
2.2376322526426979
20
37.182560710670856
10
2.1949878478072109
20
37.267324571596248
10
2.1539237352286689
20
37.35218526579834
10
2.1144627300604824
20
37.437128311451211
10
2.0766300586348003
20
37.522139032783343
10
2.0404537137313365
20
37.607202521178614
10
2.0059650337167785
20
37.692303603258665
10
1.9731993318965093
20
37.777426816544406
10
1.9421966702343487
20
37.862556273222381
10
1.9130030324781624
20
37.947675640010623
10
1.8856716449068165
20
38.032767950447521
10
1.8602650101320164
20
38.117815506901749
10
1.8368575320599689
20
38.202799605543333
10
1.8155394936548062
20
38.287700223942835
10
1.7964230392424907
20
38.3724954896078
10
1.7796516323346623
20
38.457160906670353
10
1.7654167015500188
20
38.541667917441586
10
1.7539893796238442
20
38.625981195526137
10
1.7457929218809558
20
38.710052512455647
10
1.74162679376038
20
38.793801606999054
10
1.7398330044579309
20
38.840446238841672
10
1.7363001173381334
20
38.885797400652102
10
1.7309910360717011
20
38.929829952919334
10
1.7241396877258826
20
38.972493285761722
10
1.7157949924761451
20
39.013750037800975
10
1.705457624949138
20
39.053609174939751
10
1.6930315471641468
20
39.092042089193818
10
1.6783882171096096
20
39.129020176365017
10
1.6625372669269916
20
39.16440313960787
10
1.6442220615612446
20
39.198256764471331
10
1.6235376900298251
20
39.230515442819964
10
1.601333626013774
20
39.261027048740054
10
1.5759385505650145
20
39.289880507199385
10
1.5494026302762083
20
39.316767917180655
10
1.5190313390271779
20
39.341854613872648
10
1.4873788691751182
20
39.36470987915159
10
1.4511021473312222
20
39.385499103748323
10
1.4122871333697693
20
39.403680180622317
10
1.3656122043272654
20
39.419379474630844
10
1.304373893298816
20
39.432126548808625
10
1.2929416903028212
20
39.433629273143112
10
1.2815111090285392
20
39.435144260912779
10
1.2700821598859258
20
39.436671520004147
10
1.2586548601052376
20
39.438211019053277
10
1.2472300480526641
20
39.439768911924858
10
1.235803914131703
20
39.441326983943476
10
1.2243816309539817
20
39.442903264392221
10
1.2129610345193373
20
39.444491778135884
10
1.201542151467601
20
39.446092554790852
10
1.1901249889824927
20
39.447705578740575
10
1.1277095237354098
20
39.451819990200505
10
1.0785353044686692
20
39.44919072745715
10
1.0362695604936387
20
39.442065856799147
10
0.99575112359532159
20
39.431748455916591
10
0.95913494626322382
20
39.418202333624059
10
0.92315572058606299
20
39.402163222707209
10
0.89038971341873951
20
39.383362249319397
10
0.85819650312078077
20
39.362361555060296
10
0.8286338471289324
20
39.33890888172936
10
0.80006763368538114
20
39.313366035172493
10
0.77335705491915274
20
39.285652145171269
10
0.74861129389690095
20
39.255804968183703
10
0.72460198086643857
20
39.224097571239383
10
0.70233945142754073
20
39.190394810273133
10
0.68170751304689281
20
39.154758661838606
10
0.66262129559212268
20
39.117242402389543
10
0.64459730196632514
20
39.07797108141547
10
0.6276926694150895
20
39.036967602084907
10
0.61214633510741945
20
38.994218090967848
10
0.59792928794334088
20
38.949756703362532
10
0.57149207727797025
20
38.870180693159206
10
0.54108540890040557
20
38.791373314971118
10
0.50750105033155857
20
38.713197850219416
10
0.47115971676693819
20
38.635587441207576
10
0.43233210007347561
20
38.55850353192443
10
0.39121028638469807
20
38.481922382688481
10
0.34793906075724773
20
38.405829183901162
10
0.30263232848639771
20
38.330214985929977
10
0.25538243661382548
20
38.255074905689
10
0.20626608038663813
20
38.180407043481921
10
0.15534822245816898
20
38.106211715822973
10
0.10268468230748146
20
38.032491019095055
10
0.048324143463153446
20
37.959248377984821
10
-0.0076905437082389061
20
37.886488374583742
10
-0.065321214964285945
20
37.814216451317357
10
-0.12453361160508325
20
37.742438838838048
10
-0.18529677482557683
20
37.671162406537455
10
-0.24758246745309714
20
37.600394536648217
10
-0.31136482946015231
20
37.530143076619296
10
-0.37661999895113235
20
37.460416287890126
10
-0.44609578781474535
20
37.477540109064634
10
-0.51547628119031219
20
37.495046088677036
10
-0.58475936099916659
20
37.512933684109456
10
-0.6539429320145379
20
37.531202351742401
10
-0.72302490744445003
20
37.549851549521364
10
-0.79200319020074628
20
37.568880695425932
10
-0.86087567787826669
20
37.588289227090279
10
-0.92964029896436684
20
37.608076548127741
10
-0.99829497115327714
20
37.628242064919554
10
-1.0668375969688968
20
37.648785169779451
10
-1.087625576652653
20
37.741994193441627
10
-1.1068784073280593
20
37.834906979374296
10
-1.1245797305612619
20
37.927504290036836
10
-1.1407112567005939
20
38.019766231065852
10
-1.1552524182058028
20
38.111672098167944
10
-1.1681800325842135
20
38.203200244586462
10
-1.1794677586238538
20
38.294327905503948
10
-1.1890854863022193
20
38.385031004028754
10
-1.1969986342092915
20
38.475283824189226
10
-1.2031670083164305
20
38.56505868777807
10
-1.2075435915017541
20
38.654325431824446
10
-1.2100725891834703
20
38.743050784161156
10
-1.2106869735266255
20
38.831197420524077
10
-1.2093047198240603
20
38.918722635098547
10
-1.2058231677745499
20
39.005576275682898
10
-1.2001100799242395
20
39.091697547329389
10
-1.1919879438716801
20
39.177009322388535
10
-1.1812040065989635
20
39.261407304475547
10
-1.1673619199026797
20
39.344735359829855
10
-1.1497102287751244
20
39.426709046510389
10
-1.1393703781838855
20
39.472228568389681
10
-1.1310451408303619
20
39.516948804858842
10
-1.1247768565497704
20
39.560855074645644
10
-1.1203526681884153
20
39.603837950233512
10
-1.117734990477016
20
39.645848678102801
10
-1.1174038169177938
20
39.687025155813593
10
-1.11945931666745
20
39.727364605908008
10
-1.1240330529661791
20
39.766872668236488
10
-1.1301861113927461
20
39.805152513390645
10
-1.1391152779746061
20
39.842592928547049
10
-1.1507456855110587
20
39.879105929385027
10
-1.1642961803501635
20
39.914324711121068
10
-1.18135811528066
20
39.948767740485572
10
-1.2000308719243471
20
39.98160698582906
10
-1.2228743718274311
20
40.013699542465872
10
-1.2475329305924585
20
40.043968295714464
10
-1.2771929074295212
20
40.073438250599764
10
-1.3099797231426247
20
40.101045887566109
10
-1.3510009662900349
20
40.128290601799357
10
-1.406853446725044
20
40.156452971436224
10
-1.417507174805555
20
40.160863363397468
10
-1.4281561599167985
20
40.165285181088635
10
-1.4388003920363683
20
40.169718429815731
10
-1.4494398638640149
20
40.174163075348616
10
-1.4600721743733793
20
40.17862484245974
10
-1.4707057120542752
20
40.183087125587882
10
-1.4813308200182562
20
40.187566000375696
10
-1.4919511298070582
20
40.192056255105733
10
-1.5025666133244278
20
40.196557909650615
10
-1.5131772645924211
20
40.201070952523651
10
-1.5724010858448367
20
40.221199477693119
10
-1.6205802374280434
20
40.231387030362086
10
-1.6632498640995286
20
40.235444114646121
10
-1.7050580073492914
20
40.235965212188951
10
-1.7439325135201014
20
40.232357626161352
10
-1.7828370033863903
20
40.226177144163088
10
-1.819352586842008
20
40.216497265771842
10
-1.8558842196948457
20
40.204544368192934
10
-1.8905095526633882
20
40.189542204808106
10
-1.924713370461991
20
40.172263188033241
10
-1.957686690807926
20
40.152406833148149
10
-1.9893142784275009
20
40.129981348735029
10
-2.0207119704436751
20
40.10556842263459
10
-2.050938840067694
20
40.078776023259159
10
-2.0800910756672848
20
40.049694084532376
10
-2.1082368690789948
20
40.018396036792588
10
-2.1358108761801082
20
39.985127806446727
10
-2.1627519787861988
20
39.949896726913693
10
-2.1888329710164776
20
39.912627557813096
10
-2.2140730386873391
20
39.873360798496584
10
-2.2602052096796181
20
39.803338728683876
10
-2.3099726470050213
20
39.735086471258619
10
-2.362645945864037
20
39.668267042576936
10
-2.4178360300162649
20
39.602706973977448
10
-2.475291410832456
20
39.538298960461532
10
-2.5348326922634143
20
39.474970359538048
10
-2.5963238563191551
20
39.412669391467922
10
-2.659657194324208
20
39.351357930845801
10
-2.7247447689094977
20
39.291007358066935
10
-2.7915129898477788
20
39.231595989397718
10
-2.8598990285991994
20
39.173107317724735
10
-2.9298484224835568
20
39.115528919936359
10
-3.001313260711064
20
39.058851504322064
10
-3.0742509693145461
20
39.003068405746674
10
-3.148623272256752
20
38.948175004431214
10
-3.2243954691645493
20
38.894168451312538
10
-3.3015358757986202
20
38.841047367795881
10
-3.3800153065177212
20
38.788811576800263
10
-3.4598067529519714
20
38.737461968458433
10
-3.540885027489824
20
38.68700034271879
10
-3.6035615159029155
20
38.721522341354422
10
-3.6660470459458248
20
38.75638881171448
10
-3.7283397111943901
20
38.791598683009674
10
-3.7904376302598743
20
38.82715088648721
10
-3.85233892634117
20
38.86304435926521
10
-3.914041725831555
20
38.89927799652709
10
-3.9755441423846722
20
38.935850709035563
10
-4.0368443305017836
20
38.972761387584043
10
-4.0979404319699544
20
39.010008917424543
10
-4.1588305765641458
20
39.047592170105744
10
-4.1547859536647271
20
39.143005498018589
10
-4.1493351623742072
20
39.23773535727463
10
-4.1424673786996795
20
39.331758931326448
10
-4.1341700890512527
20
39.425052268547411
10
-4.1244287831572706
20
39.517590047961214
10
-4.1132266731864009
20
39.609345361792947
10
-4.1005442047670098
20
39.700289400964238
10
-4.0863585281511714
20
39.790391117983368
10
-4.0706428918298974
20
39.879616721004773
10
-4.0533656401899005
20
39.967929073876554
10
-4.0344891605737701
20
40.055286870073544
10
-4.0139681742045159
20
40.141643531941241
10
-3.991747595595931
20
40.226945659329758
10
-3.96775924904916
20
40.311130771281604
10
-3.9419169514550911
20
40.394123852995335
10
-3.9141087075682233
20
40.475831958078423
10
-3.8841830134241437
20
40.556134640910443
10
-3.8519227253405317
20
40.634865742363189
10
-3.8169854080450936
20
40.711771867728061
10
-3.778718832843321
20
40.786383775035439
10
-3.756949984675737
20
40.827676106161931
10
-3.7373339739072597
20
40.868717808392113
10
-3.7199154968036128
20
40.909505657068351
10
-3.7045172721782582
20
40.949878862526184
10
-3.6911156144277362
20
40.989780604012211
10
-3.680138468895529
20
41.029468313150758
10
-3.6716833108644082
20
41.068965232675005
10
-3.6658757631762704
20
41.10831086021841
10
-3.6619116058577776
20
41.146878880239683
10
-3.6608462265899466
20
41.185354582797082
10
-3.66263007895127
20
41.223633603303924
10
-3.6666035590252646
20
41.261159461623897
10
-3.6741696108716742
20
41.298844826628127
10
-3.6837066863136805
20
41.335397967997693
10
-3.6974656489566615
20
41.372309329972964
10
-3.713449857306883
20
41.407928804009366
10
-3.7344718100816405
20
41.444071160990035
10
-3.7589960588120275
20
41.479223943955233
10
-3.7915680855053795
20
41.516157395911662
10
-3.8382284817643963
20
41.557815841049418
10
-3.8473776983021168
20
41.564833340804519
10
-3.8565193789795993
20
41.571860648008105
10
-3.8656535084106554
20
41.57889776931647
10
-3.8747800911830166
20
41.585944663715075
10
-3.8838953231487938
20
41.593006243785631
10
-3.8930116073319527
20
41.600068642006747
10
-3.9021154554391275
20
41.607144882478494
10
-3.9112117244117224
20
41.614230872993559
10
-3.9203003805965757
20
41.6213266279414
10
-3.9293814206576725
20
41.628432130506781
10
-3.9813775940704952
20
41.663203045220634
10
-4.0252783480109136
20
41.685513147633429
10
-4.0654439900249253
20
41.700475701061031
10
-4.1056926862438727
20
41.711799787289372
10
-4.144176287847146
20
41.718376589900274
10
-4.1833547666962811
20
41.722475924843678
10
-4.2211314490506222
20
41.722576808837893
10
-4.25951193401451
20
41.720486278169432
10
-4.2968402814286266
20
41.714956997716385
10
-4.3343507718091487
20
41.707119348898004
10
-4.3713397551611948
20
41.696473706451741
10
-4.4076938013879525
20
41.682998172740142
10
-4.4443401756942178
20
41.667543418492727
10
-4.4804714720775918
20
41.649487236221034
10
-4.5161573293233923
20
41.628941395933268
10
-4.5514446077313018
20
41.605994470561086
10
-4.5866895050589367
20
41.580996506140139
10
-4.6218310859135849
20
41.553938765876794
10
-4.6566693610480856
20
41.524689771254643
10
-4.6912123782138186
20
41.493293603632537
10
-4.7538956801752867
20
41.437597362729726
10
-4.8196323172600772
20
41.384551506819314
10
-4.8878049571182478
20
41.333641745744586
10
-4.9580826790870978
20
41.28459982747647
10
-5.030250335483446
20
41.237257011045784
10
-5.1041534454148199
20
41.191496698164151
10
-5.1796740265011998
20
41.147233668512754
10
-5.2567179061837468
20
41.104403218309301
10
-5.3352075536049792
20
41.0629549451683
10
-5.4150774965765613
20
41.022848857668428
10
-5.4962713188704218
20
40.984052748785359
10
-5.5787396304754955
20
40.946540521690082
10
-5.6624385604986296
20
40.9102908037665
10
-5.7473287024867448
20
40.875286135744815
10
-5.8333742894256222
20
40.841512150606135
10
-5.9205425369444411
20
40.808957113458497
10
-6.0088031943545781
20
40.777611493093133
10
-6.0981281213362237
20
40.747467565469847
10
-6.1884909981884313
20
40.718519198727215
10
-6.2798670263918925
20
40.690761612885581
10
-6.331472915141485
20
40.740329172893901
10
-6.3828051958697527
20
40.79018004092277
10
-6.4338623037550748
20
40.840312692999746
10
-6.4846426998121052
20
40.890725608870696
10
-6.5351448460989268
20
40.941417276273206
10
-6.5853672198743993
20
40.992386140971234
10
-6.6353082761170503
20
41.043630665687076
10
-6.6849665248644676
20
41.095149299319715
10
-6.7343404568189955
20
41.146940486479835
10
-6.783428560029277
20
41.199002648919375
10
-6.7548269667835648
20
41.290118020401813
10
-6.7250440147206891
20
41.380209268966482
10
-6.6940751530622853
20
41.469251554617877
10
-6.6619144952654494
20
41.557218502031752
10
-6.6285545761953664
20
41.644081898933933
10
-6.5939861458325897
20
41.729811405988983
10
-6.55819777309675
20
41.814374137322766
10
-6.5211754206319403
20
41.897734190607167
10
-6.4829019966375609
20
41.979851998037446
10
-6.443356534530035
20
42.060683498744723
10
-6.4025133938548944
20
42.140179057722655
10
-6.3603408938787718
20
42.218281965419749
10
-6.3167996481626574
20
42.294926384164143
10
-6.2718399738498132
20
42.370034316764531
10
-6.2253980417416539
20
42.443510998684069
10
-6.1773897260735131
20
42.515237664883415
10
-6.1276998627743593
20
42.585058761573585
10
-6.0761617086884527
20
42.65275758842003
10
-6.0225100809799024
20
42.718000757145511
10
-5.9662364259347065
20
42.780166207124061
10
-5.9345220914623598
20
42.814417344989543
10
-5.9049521063837576
20
42.84898358712325
10
-5.877570477061159
20
42.883873390539634
10
-5.852247579565061
20
42.918885558077065
10
-5.8289752419723726
20
42.953959077008818
10
-5.8081001990598677
20
42.989453365463639
10
-5.7897105881846294
20
43.025416104069613
10
-5.7739175289630573
20
43.061917957245598
10
-5.7601063100258996
20
43.098145804976731
10
-5.7491189875947599
20
43.13503473948964
10
-5.7409347166090594
20
43.172471129477721
10
-5.7350603986103668
20
43.209746737001282
10
-5.7326149516430807
20
43.24810624288051
10
-5.7323664099627631
20
43.28588224169831
10
-5.7361031836359011
20
43.325096960824922
10
-5.7423237463204702
20
43.363639749171597
10
-5.7532750615650405
20
43.403991468221463
10
-5.7678654583525368
20
43.44429379008357
10
-5.7897685400827212
20
43.488399026316515
10
-5.8240570227490629
20
43.540714593470788
10
-5.8310782249219715
20
43.549860968659289
10
-5.8380896076974551
20
43.559014869717664
10
-5.8450911597237853
20
43.568176292090399
10
-5.8520828895761383
20
43.577345202374985
10
-5.8590606455575074
20
43.586526398618432
10
-5.8660376101401415
20
43.595706556788336
10
-5.8729997855541551
20
43.604897930455159
10
-5.8799521180843168
20
43.614096759500555
10
-5.8868945696054862
20
43.623303049030461
10
-5.8938271409188498
20
43.632516784398803
10
-5.9350522115264051
20
43.679560508776277
10
-5.9716828059311569
20
43.712472763501907
10
-6.0066072431548454
20
43.737321113567766
10
-6.0425536099779444
20
43.758676470114004
10
-6.078023711518159
20
43.774989462305484
10
-6.1148062300810295
20
43.789089252085205
10
-6.1512695929367105
20
43.798964023379476
10
-6.1888833625347939
20
43.806878327336072
10
-6.2263708615224358
20
43.811198738745901
10
-6.2646317452722506
20
43.813336580658017
10
-6.3031156550795755
20
43.812627131765645
10
-6.3417186921202759
20
43.809019885799216
10
-6.381116356330355
20
43.803576518872696
10
-6.420689792066244
20
43.795487053546076
10
-6.4604773383322538
20
43.784877475096977
10
-6.5005013329731174
20
43.771845467054305
10
-6.5410152387402452
20
43.756821337582245
10
-6.5819624575120228
20
43.739780879714033
10
-6.6231838443934343
20
43.720545328514547
10
-6.664675762672406
20
43.699159349763733
10
-6.7396384303316514
20
43.661584545624557
10
-6.8168644242673002
20
43.627360074901247
10
-6.89589055317232
20
43.595829400958117
10
-6.9764666024673962
20
43.566647757827653
10
-7.0584284274805364
20
43.539596472379884
10
-7.1416569908775527
20
43.514522935888294
10
-7.2260603853321328
20
43.491314296791472
10
-7.3115643950711515
20
43.469883682834393
10
-7.3981071746698177
20
43.450162339534664
10
-7.4856358350617516
20
43.432094696116444
10
-7.5741042170037245
20
43.415635040123625
10
-7.6634713669856342
20
43.400745380124462
10
-7.7537004412336996
20
43.387393717719398
10
-7.8447578985691822
20
43.375552992523922
10
-7.9366129034603263
20
43.365200063295681
10
-8.0292368278208208
20
43.35631511348577
10
-8.122602920548152
20
43.348881109364427
10
-8.2166859969074846
20
43.342883303290741
10
-8.3114622215891725
20
43.338308960658054
10
-8.4069088784255754
20
43.335147048137308
10
-8.4439273112873607
20
43.396382220679648
10
-8.4806081330753518
20
43.457820233891951
10
-8.5169502265589418
20
43.519459210188778
10
-8.5529525017340067
20
43.581297278513617
10
-8.5886138604419333
20
43.643332587706752
10
-8.6239332330267651
20
43.705563237306464
10
-8.6589095310482662
20
43.76798734394464
10
-8.6935417137904221
20
43.830603022992563
10
-8.7278287239284484
20
43.893408381757197
10
-8.7617695107822406
20
43.956401505138949
10
-8.7105601013888538
20
44.037009558583513
10
-8.6584746470081484
20
44.116322626870463
10
-8.6055151854759782
20
44.194315539350519
10
-8.5516828532329576
20
44.270961295037722
10
-8.4969777454608604
20
44.34623071076097
10
-8.4413987757626128
20
44.420092087959581
10
-8.3849434173280972
20
44.492510702882342
10
-8.3276074025342268
20
44.563448239450153
10
-8.2693844619028845
20
44.632862061100042
10
-8.210265746412226
20
44.700704176213833
10
-8.1502393380343001
20
44.766920007301529
10
-8.0892893114206501
20
44.831446577063701
10
-8.0273946628893
20
44.894210096620739
10
-7.9645275882847368
20
44.955122368936941
10
-7.9006509619174645
20
45.014075338466512
10
-7.8357142639542587
20
45.070932511344822
10
-7.7696465114748801
20
45.125513827158308
10
-7.7023427311714352
20
45.177566817186012
10
-7.6336330642753154
20
45.226700816755745
10
-7.5631872854919147
20
45.272183337614578
10
-7.5236887437143594
20
45.297059121367276
10
-7.4861799299579843
20
45.322794272655287
10
-7.4507011610858971
20
45.349408347529533
10
-7.4171793051070969
20
45.376673456696409
10
-7.3856222580668298
20
45.404528550047388
10
-7.3562719162044408
20
45.433410541695338
10
-7.3292010755838897
20
45.463388297265269
10
-7.3044987769358514
20
45.49455883733156
10
-7.2817817071147859
20
45.525977643284108
10
-7.2616212099333382
20
45.558765888965866
10
-7.2440265610004229
20
45.592808420006712
10
-7.2287047675209912
20
45.627293506734688
10
-7.2164144786535687
20
45.663713017210213
10
-7.2063972567833225
20
45.700137502807408
10
-7.1998571878862592
20
45.738983161012925
10
-7.1958901816876617
20
45.777822635434184
10
-7.1960245474412812
20
45.819633810468744
10
-7.1996867792530859
20
45.862339137562174
10
-7.2094282552124636
20
45.910610459423012
10
-7.2290081226143066
20
45.970017928774183
10
-7.2334228258048636
20
45.980669869596682
10
-7.2378260998501132
20
45.991326538125975
10
-7.2422179272901435
20
46.001987926593188
10
-7.2465983326085777
20
46.012654008776614
10
-7.2509615639847542
20
46.023327131792016
10
-7.2553252994934176
20
46.034001490485359
10
-7.2596713431116182
20
46.044681618210241
10
-7.2640059479168713
20
46.05536640188852
10
-7.2683290773458067
20
46.066055833395382
10
-7.2726407376402165
20
46.076749897847719
10
-7.3002852868052166
20
46.132860481023805
10
-7.3271494048180505
20
46.174131973613456
10
-7.354452594197868
20
46.207172746273358
10
-7.3836469460354648
20
46.237104040305852
10
-7.4136863207478463
20
46.262041519246765
10
-7.4455662103369393
20
46.285180886064239
10
-7.4782313346680294
20
46.304156594565612
10
-7.5125150744201283
20
46.321536386134987
10
-7.5476070133550692
20
46.335412060482604
10
-7.5840108738629191
20
46.347379703471397
10
-7.6213670955476225
20
46.356654798541896
10
-7.6595883903133739
20
46.363161667756856
10
-7.699052457726113
20
46.368100643499304
10
-7.7393711694014309
20
46.370529180414557
10
-7.7805489494052784
20
46.370578888244076
10
-7.8225820918204549
20
46.368349907188119
10
-7.8656040501614424
20
46.364323483538179
10
-7.9095664218685338
20
46.358461583900294
10
-7.9543617499612367
20
46.350550349388342
10
-7.9999749648332106
20
46.340631978437841
10
-8.0821084168995707
20
46.323739271111478
10
-8.1655609426414912
20
46.310668529281386
10
-8.2500550609420706
20
46.30066570332324
10
-8.3354383129346719
20
46.293333016201203
10
-8.4216087447136267
20
46.288416764106167
10
-8.5084908726328017
20
46.285738723670178
10
-8.5960251278922666
20
46.285166105452753
10
-8.6841623105503842
20
46.286595787290985
10
-8.77286047531266
20
46.289945354228578
10
-8.8620829184432441
20
46.295147434122292
10
-8.9517968867031996
20
46.302145929296671
10
-9.0419726524628903
20
46.310893543713519
10
-9.1325829100443112
20
46.321349831299656
10
-9.2236022640861233
20
46.333479971224925
10
-9.3150069209480666
20
46.34725363478141
10
-9.4067743557558874
20
46.362644268769401
10
-9.4988831382991137
20
46.379628494286571
10
-9.5913127583128901
20
46.398185550197695
10
-9.6840434886460205
20
46.418296967072706
10
-9.7770562436009953
20
46.439946207287392
10
-9.796964474637722
20
46.508675917145027
10
-9.8164940993214493
20
46.577514176360459
10
-9.8356445255810225
20
46.646458880897612
10
-9.8544151822257682
20
46.715507943372018
10
-9.8728054906893785
20
46.784659288488427
10
-9.8908149078877585
20
46.853910806988694
10
-9.9084428698221849
20
46.923260396140108
10
-9.9256888587526557
20
46.992705964827522
10
-9.9425523445170025
20
47.062245415010722
10
-9.9590328073005256
20
47.131876621620556
10
-9.8887054152807856
20
47.196484052057066
10
-9.8178669978162443
20
47.259613885813508
10
-9.7465260361647417
20
47.321242336399422
10
-9.6746906148503893
20
47.381343619661834
10
-9.6023683801658883
20
47.439889567594378
10
-9.5295664868389327
20
47.496849283765201
10
-9.4562914815466801
20
47.552188571870026
10
-9.3825491578920666
20
47.605869318196206
10
-9.3083444956161205
20
47.657848715209241
10
-9.2336813709257264
20
47.70807811622474
10
-9.1585623939706924
20
47.756501720530537
10
-9.0829884844214952
20
47.803054572518548
10
-9.0069584505617026
20
47.847659963026636
10
-8.9304682648097682
20
47.890225505171614
10
-8.8535100304520409
20
47.930637212586838
10
-8.7760702767347922
20
47.968750169411656
10
-8.6981270443427086
20
48.004372080043652
10
-8.6196442798291688
20
48.037231908276965
10
-8.5405590226796519
20
48.066908336736176
10
-8.4607418829294954
20
48.092608367597876
10
-8.4161508946792534
20
48.106413555106144
10
-8.3732594151394082
20
48.121563806397283
10
-8.3321013270093616
20
48.138088449126016
10
-8.2926649713394642
20
48.155748426803086
10
-8.2549737755311394
20
48.174486815460099
10
-8.2191483139603694
20
48.194788251185017
10
-8.1852410742954298
20
48.216738088962423
10
-8.1533129581965706
20
48.240453093471302
10
-8.1232381675990215
20
48.264921720527738
10
-8.0952784008369285
20
48.291374812583371
10
-8.0694724185065709
20
48.319703542280493
10
-8.0457473055722506
20
48.349048005750717
10
-8.0244497347992993
20
48.381045590714379
10
-8.0053464923683677
20
48.413636294703572
10
-7.9889752731372452
20
48.449465625006802
10
-7.9750910439342091
20
48.485954938259084
10
-7.9643993028123319
20
48.526376209927804
10
-7.956883795586319
20
48.568574244312089
10
-7.9537998009795965
20
48.617722039308617
10
-7.9573367160792907
20
48.680172890540078
10
-7.9588440671577789
20
48.691604485754432
10
-7.9603391533883583
20
48.703037686517604
10
-7.9618219635678358
20
48.714472487326844
10
-7.963292524926687
20
48.725908862354636
10
-7.9647446763347052
20
48.73734759540045
10
-7.9661969939800841
20
48.748787652182287
10
-7.9676307283959851
20
48.760228702430581
10
-7.9690522098601315
20
48.77167128871362
10
-7.9704614030488248
20
48.783115393593704
10
-7.971858319689888
20
48.79456100764007
10
-7.9840384170641396
20
48.855914604672776
10
-7.9993053126885929
20
48.902732750612508
10
-8.0171265892688854
20
48.941714272101748
10
-8.0375793772647182
20
48.978181735626514
10
-8.0601408908120078
20
49.010044253003485
10
-8.0849455900799008
20
49.040646288601266
10
-8.1115864037268732
20
49.067429771936631
10
-8.1402037315455704
20
49.093090645106273
10
-8.170508652690426
20
49.115575980666925
10
-8.2025746285413916
20
49.136557847593501
10
-8.2362573967422605
20
49.155185403429542
10
-8.2714922309531786
20
49.171362954957544
10
-8.3083332917853205
20
49.186347692130525
10
-8.3466496243649289
20
49.199128728552225
10
-8.3864114392868956
20
49.209834337143377
10
-8.4275892405534059
20
49.218560283427152
10
-8.4701873764675639
20
49.225805958376284
10
-8.5141689378159739
20
49.23152209877172
10
-8.5594854810641543
20
49.23547431630876
10
-8.6061115255186795
20
49.237699475014757
10
-8.6898185022443251
20
49.24264007298401
10
-8.7738104097573437
20
49.251613808389394
10
-8.8580143823490118
20
49.263820508406951
10
-8.9423861105738336
20
49.278836488683837
10
-9.0268927755028781
20
49.296390302403992
10
-9.1115075940895416
20
49.316290264177468
10
-9.1962073970417144
20
49.338392689276588
10
-9.2809713490712369
20
49.362585238514185
10
-9.3657802655343971
20
49.388777444418466
10
-9.4506161301745752
20
49.416894735831249
10
-9.5354618242040932
20
49.446874446793672
10
-9.62030087741031
20
49.47866319936427
10
-9.7051173782697777
20
49.512214857802057
10
-9.7898958133035414
20
49.547489215676521
10
-9.8746210445282667
20
49.584450818105211
10
-9.9592781910115153
20
49.623068189050571
10
-10.043852600697249
20
49.663313199267023
10
-10.128329838590346
20
49.705160483917297
10
-10.212695627597483
20
49.748587100363054
10
-10.296935813546868
20
49.793572132337147
10
-10.298377131257617
20
49.865112563999659
10
-10.299424647410206
20
49.936659854638911
10
-10.300078336763562
20
50.008211820905132
10
-10.300338186044984
20
50.079766296562937
10
-10.30020417398311
20
50.151321129612214
10
-10.299676323866793
20
50.222874139373054
10
-10.298754633784579
20
50.294423149966988
10
-10.297439144034124
20
50.365966010384014
10
-10.29572988554329
20
50.437500551234209
10
-10.293626907420244
20
50.509024589848309
10
-10.208974231317951
20
50.553228508133977
10
-10.124210370263153
20
50.595872912984383
10
-10.039349675841478
20
50.636937025462593
10
-9.9544066305376013
20
50.676398030716186
10
-9.8693959100033943
20
50.714230703515277
10
-9.7843324219356749
20
50.75040704852622
10
-9.6992313398616528
20
50.784895728548712
10
-9.6141081251829803
20
50.817661429369288
10
-9.5289786677096071
20
50.848664091559293
10
-9.4438593020486454
20
50.877857728793259
10
-9.3587669913652558
20
50.905189116504694
10
-9.2737194355909374
20
50.930595752951014
10
-9.1887353371289962
20
50.954003230257683
10
-9.1038347180308925
20
50.975321269779066
10
-9.0190394520316737
20
50.994437724148469
10
-8.9343740356488706
20
51.011209130966925
10
-8.8498670257914931
20
51.0254440614898
10
-8.765553746898858
20
51.03687138298811
10
-8.6814824307169474
20
51.045067841094465
10
-8.5977333350536096
20
51.049233969616679
10
-8.5510887031924767
20
51.051027759203293
10
-8.5057375420354759
20
51.054560646752975
10
-8.4617049898455612
20
51.059869728800116
10
-8.4190416570032465
20
51.066721077145935
10
-8.3777849049072692
20
51.075065772280659
10
-8.3379257678251655
20
51.08540313992269
10
-8.2994928535361954
20
51.097829217644801
10
-8.2625147663999243
20
51.112472547762223
10
-8.2271318031422798
20
51.128323497930893
10
-8.193278178292541
20
51.146638703319766
10
-8.1610194999449686
20
51.167323074841995
10
-8.1305078940530287
20
51.189527138912013
10
-8.1016544355575508
20
51.21492221431285
10
-8.0747670255842632
20
51.241458134595625
10
-8.0496803288922862
20
51.271829425844643
10
-8.0268250636133107
20
51.30348189569667
10
-8.0060358401420597
20
51.339758619021431
10
-7.9878547633496435
20
51.3785736326424
10
-7.9721554681340994
20
51.42524856054456
10
-7.9594083950737806
20
51.486486873059917
10
-7.9579056707393274
20
51.497919076055908
10
-7.9563906829776334
20
51.509349657324144
10
-7.9548634227607735
20
51.520778604985892
10
-7.953323923896348
20
51.532205905053431
10
-7.9517660327835369
20
51.543630717084163
10
-7.9502079588153727
20
51.555056850732164
10
-7.9486316793493073
20
51.566479134995411
10
-7.9470431646210606
20
51.577899730358524
10
-7.9454423890995027
20
51.589318614885052
10
-7.9438293651418181
20
51.600735777376229
10
-7.9397149551707056
20
51.663151241491789
10
-7.9423442172064931
20
51.712325460836233
10
-7.9494690859657977
20
51.754591204378151
10
-7.9597864894607007
20
51.795109641639854
10
-7.973332611747189
20
51.831725818963989
10
-7.9893717223721286
20
51.867705044464749
10
-8.0081726960578585
20
51.90047105181641
10
-8.0291733899516498
20
51.932664262069814
10
-8.0526260621610106
20
51.96222691922371
10
-8.0781689101987446
20
51.990793131541828
10
-8.1058827997575058
20
52.017503710192862
10
-8.1357299771875375
20
52.042249471330294
10
-8.1674373738099106
20
52.066258784223038
10
-8.2011401329535811
20
52.088521313498781
10
-8.2367762831579885
20
52.109153252158613
10
-8.2742925426046501
20
52.1282394693783
10
-8.3135638634311206
20
52.146263462911946
10
-8.3545673432943097
20
52.163168095806071
10
-8.3973168532779301
20
52.178714428638919
10
-8.4417782417105052
20
52.19293147548381
10
-8.521354251475362
20
52.219368686515324
10
-8.6001616292746732
20
52.249775354845944
10
-8.6783370950867624
20
52.283359714447109
10
-8.7559475034390584
20
52.31970104704601
10
-8.8330314137961832
20
52.358528662539428
10
-8.9096125629380882
20
52.3996504764905
10
-8.9857057608116335
20
52.442921702927791
10
-9.0613199587034412
20
52.488228435298296
10
-9.1364600402685276
20
52.535478326254356
10
-9.211127902244705
20
52.584594682234247
10
-9.2853232299116399
20
52.635512540156661
10
-9.3590439266315926
20
52.688176080313418
10
-9.4322865688078821
20
52.742536618243591
10
-9.5050465711428895
20
52.798551306329102
10
-9.5773184940249738
20
52.856181976518847
10
-9.6490961068965255
20
52.915394374219915
10
-9.7203725388016373
20
52.976157536413659
10
-9.7911404105611961
20
53.038443228934504
10
-9.8613918700832635
20
53.102225590067825
10
-9.931118658241413
20
53.167480759274149
10
-9.9139948381628891
20
53.23695654932002
10
-9.8964888585505157
20
53.306337042695596
10
-9.8786012631181173
20
53.375620122504451
10
-9.8603325969054936
20
53.444803692314771
10
-9.8416833979581462
20
53.513885668596458
10
-9.8226542520121409
20
53.582863951667498
10
-9.8032457201372782
20
53.651736439383548
10
-9.7834584005806775
20
53.720501059344194
10
-9.7632928823079794
20
53.789155732658557
10
-9.7427497789594888
20
53.857698357733611
10
-9.649540755158494
20
53.878486338873195
10
-9.639310532761856
20
53.880606184321785
42
-0.90916493334975168
0
CIRCLE
5
101
100
AcDbEntity
8
0
100
AcDbCircle
10
-7.6647812191849063
20
56.139197335966493
30
0
40
1.1500000000000001
0
CIRCLE
5
102
100
AcDbEntity
8
0
100
AcDbCircle
10
2.6996629237072995
20
50.091197864239199
30
0
40
1.1500000000000001
0
LWPOLYLINE
5
103
100
AcDbEntity
8
0
100
AcDbPolyline
90
1369
70
1
43
0.0
10
-6.1527813510221154
20
58.730308371630187
10
3.6962587606136488
20
52.983064373164488
10
13.365967781495208
20
51.664498000383325
10
13.36372515244795
20
51.656019504588471
10
13.356209645214019
20
51.61382147019814
10
13.353125651740667
20
51.564673673726816
10
13.356662564936318
20
51.502222822911314
10
13.358169916793409
20
51.49079122876185
10
13.359665003845443
20
51.479358026727631
10
13.361147813195476
20
51.46792322718337
10
13.362618373473058
20
51.456486851049291
10
13.36407052448153
20
51.445048117984342
10
13.365522842126886
20
51.433608061202499
10
13.366956578011138
20
51.422167011670574
10
13.368378058307327
20
51.410724424444197
10
13.369787253809932
20
51.399280319441722
10
13.371184169704131
20
51.38783470527634
10
13.383364265210965
20
51.326481108711988
10
13.398631162316255
20
51.279662963897721
10
13.416452437423665
20
51.240681441289098
10
13.436905225411559
20
51.204213977758229
10
13.45946673896681
20
51.172351460387347
10
13.484271438234696
20
51.14174942478958
10
13.510912251873659
20
51.114965941448169
10
13.539529581870369
20
51.089305067979403
10
13.569834500837249
20
51.066819732717846
10
13.601900477813682
20
51.045837864310393
10
13.63558324489704
20
51.027210309961333
10
13.670818079511744
20
51.011032758240873
10
13.70765913993214
20
50.996048021254268
10
13.74597547251971
20
50.983266984838586
10
13.785737287441693
20
50.972561376247455
10
13.826915089197049
20
50.963835429693958
10
13.869513225282908
20
50.956589753614303
10
13.913494785970768
20
50.950873614619113
10
13.958811329537442
20
50.946921396925333
10
14.005437374790935
20
50.944696236889165
10
14.089144351530605
20
50.939755638918015
10
14.173136259037555
20
50.930781903520582
10
14.257340231203665
20
50.91857520373128
10
14.341711958371299
20
50.90355922208667
10
14.426218623501097
20
50.88600541030965
10
14.51083344174643
20
50.866105447863397
10
14.595533245060917
20
50.844003021810309
10
14.680297197388189
20
50.819810473861423
10
14.765106113333786
20
50.793618266366067
10
14.849941977980013
20
50.765500974945269
10
14.934787673238779
20
50.735521264378121
10
15.019626725209683
20
50.703732511420263
10
15.104443227173332
20
50.670180853919007
10
15.18922166149272
20
50.634906495119118
10
15.273946893305904
20
50.597944891611448
10
15.358604038810885
20
50.559327521733913
10
15.443178448416999
20
50.519082511457007
10
15.527655687512244
20
50.477235225724868
10
15.612021475396887
20
50.433808610421494
10
15.696261662153123
20
50.388823577134765
10
15.69770297906304
20
50.317283146776894
10
15.698750495209556
20
50.245735856145615
10
15.699404183871398
20
50.174183889077604
10
15.699664032337699
20
50.102629413063923
10
15.699530021782486
20
50.031074581172319
10
15.699002171490058
20
49.959521570813209
10
15.698080481121259
20
49.88797255857169
10
15.696764990377394
20
49.816429699608875
10
15.695055733342642
20
49.744895159550317
10
15.692952754127592
20
49.673371119996347
10
15.60830007762851
20
49.629167201519053
10
15.523536217020249
20
49.586522797069954
10
15.438675521381612
20
49.545458685577934
10
15.35373247715382
20
49.505997679097732
10
15.268721755522066
20
49.468165007503167
10
15.183658268321601
20
49.431988663483367
10
15.098557185046761
20
49.397499982585124
10
15.013433971811182
20
49.364734280882196
10
14.928304515137974
20
49.333731619202737
10
14.843185148358685
20
49.304537981423941
10
14.75809283792568
20
49.277206593838287
10
14.673045281826244
20
49.251799959140151
10
14.588061183183747
20
49.228392481034611
10
14.503160564696834
20
49.207074442480263
10
14.418365298697619
20
49.187957988110853
10
14.333699881788215
20
49.171186581169394
10
14.249192870976584
20
49.15695164964405
10
14.164879592779281
20
49.145524328492215
10
14.080808275895972
20
49.137327870047336
10
13.997059181306364
20
49.133161742628715
10
13.950414549457705
20
49.131367953334262
10
13.90506338870142
20
49.127835065506332
10
13.861030835482588
20
49.122525984253343
10
13.818367502664294
20
49.115674635928642
10
13.777110750939467
20
49.107329941243378
10
13.737251614491131
20
49.096992572336646
10
13.698818699976778
20
49.084566494851273
10
13.661840611940404
20
49.06992316597794
10
13.62645764881975
20
49.05407221558292
10
13.592604023805066
20
49.035757010076438
10
13.560345344004592
20
49.015072637772725
10
13.529833739699704
20
48.992868574649847
10
13.500980281872705
20
48.967473498011358
10
13.474092871124741
20
48.940937579144581
10
13.449006175558234
20
48.910566286414685
10
13.426150909147761
20
48.878913818051437
10
13.405361685682545
20
48.842637094718732
10
13.387180608890141
20
48.803822081097763
10
13.371481314131087
20
48.757147151896234
10
13.358734240616165
20
48.695908840694273
10
13.357231516287779
20
48.684476637690331
10
13.355716528518116
20
48.673046056416027
10
13.354189269151975
20
48.661617107503574
10
13.352649769444803
20
48.650189808692772
10
13.351091877506033
20
48.638764995440162
10
13.349533804355866
20
48.627338863008013
10
13.347957524824734
20
48.615916578651365
10
13.346369010163455
20
48.604495983395644
10
13.344768234640018
20
48.593077098855133
10
13.343155209953117
20
48.581659936446371
10
13.339040799230336
20
48.519244471122931
10
13.341670061960649
20
48.470070252222243
10
13.348794931500567
20
48.427804508993859
10
13.359112333592503
20
48.387286071355653
10
13.372658455806814
20
48.350669893650739
10
13.388697565964305
20
48.314690669398274
10
13.407498540111469
20
48.281924660806283
10
13.428499235492106
20
48.249731451670364
10
13.451951907701524
20
48.220168794516461
10
13.477494754252319
20
48.191602581080851
10
13.50520864402883
20
48.164892002628932
10
13.535055821247175
20
48.140146241284413
10
13.56676321706
20
48.116136929742765
10
13.600465978502053
20
48.093874400247465
10
13.636102126634345
20
48.073242461593999
10
13.673618386826703
20
48.054156243363977
10
13.712889707695826
20
48.036132249790839
10
13.753893188369396
20
48.019227617929552
10
13.796642697337569
20
48.00368128397578
10
13.841104085900477
20
47.989464237179746
10
13.920680095534998
20
47.96302702609939
10
13.999487473334295
20
47.932620357768762
10
14.0776629392281
20
47.899035998110548
10
14.155273347568624
20
47.862694665471125
10
14.232357257855785
20
47.823867050075251
10
14.308938407029482
20
47.782745235955765
10
14.385031604881711
20
47.73947400948429
10
14.460645802763061
20
47.694167277316424
10
14.535785883543578
20
47.646917384398712
10
14.610453746304309
20
47.597801030380495
10
14.684649073469041
20
47.546883170298322
10
14.758369770691235
20
47.494219632301309
10
14.831612412213435
20
47.439859092422026
10
14.904372415939557
20
47.38384440499874
10
14.976644338468926
20
47.326213735029526
10
15.048421949922153
20
47.267001337082078
10
15.119698383572333
20
47.206238174711288
10
15.190466253139954
20
47.143952482554752
10
15.260717713787519
20
47.080170119940583
10
15.330444501847747
20
47.014914951106363
10
15.313320681883374
20
46.945439160650494
10
15.295814702218451
20
46.876058667360532
10
15.277927105696898
20
46.806775588984792
10
15.259658439213444
20
46.737592016904735
10
15.241009240425962
20
46.668510042276921
10
15.22198009557483
20
46.59953175875556
10
15.202571562708084
20
46.530659272099669
10
15.18278424167063
20
46.461894651013544
10
15.162618724886743
20
46.393239978830671
10
15.142075620057389
20
46.324697352630196
10
15.048866597445887
20
46.303909371892196
10
14.955953811513229
20
46.284656541216755
10
14.863356499761553
20
46.266955219416658
10
14.771094559821643
20
46.250823691844225
10
14.679188692919327
20
46.236282531867559
10
14.587660545990664
20
46.223354916092703
10
14.496532885452062
20
46.212067189847417
10
14.40582978679641
20
46.202449462311399
10
14.315576965613205
20
46.194536315132993
10
14.225802102564295
20
46.18836793928967
10
14.13653535863441
20
46.183991356689297
10
14.047810006183411
20
46.18146235829073
10
13.959663370387624
20
46.180847974986335
10
13.872138154353632
20
46.182230228325011
10
13.785284514871867
20
46.185711780791024
10
13.699163243510377
20
46.191424868515156
10
13.613851468447463
20
46.199547003961669
10
13.529453486436193
20
46.210330941914044
10
13.446125431083765
20
46.224173028624321
10
13.36415174405813
20
46.241824719768843
10
13.318632222437174
20
46.252164570174344
10
13.273911985972758
20
46.260489807512911
10
13.230005715047586
20
46.266758091069605
10
13.18702284049759
20
46.271182280012098
10
13.1450121126576
20
46.273799957836999
10
13.103835635838259
20
46.274131130118008
10
13.063496185003721
20
46.272075631845524
10
13.023988123405061
20
46.267501894128891
10
12.985708277529058
20
46.261348837126249
10
12.948267862122263
20
46.252419670295325
10
12.911754861310424
20
46.24078926075876
10
12.876536078580029
20
46.227238767299639
10
12.842093048945282
20
46.210176832106839
10
12.809253803601786
20
46.191504075463158
10
12.77716124696498
20
46.168660575560104
10
12.746892494964877
20
46.144002015719479
10
12.717422539166465
20
46.114342039925049
10
12.689814902380663
20
46.081555223863162
10
12.662570187631523
20
46.040533981097468
10
12.634407820600927
20
45.984681500307019
10
12.629997427522262
20
45.974027773713459
10
12.625575608712104
20
45.963378787569134
10
12.621142359615128
20
45.952734555351128
10
12.616697715539809
20
45.942095082826171
10
12.612235948445935
20
45.931462774147548
10
12.607773664246864
20
45.920829235440202
10
12.603294790537348
20
45.910204128067384
10
12.598804535536292
20
45.899583816477829
10
12.59430288090952
20
45.888968332998807
10
12.589789839513541
20
45.878357682439692
10
12.569661313622099
20
45.819133861378766
10
12.559473761675088
20
45.770954709604098
10
12.555416676265629
20
45.728285084413464
10
12.554895579592172
20
45.686476939900359
10
12.558503164433061
20
45.647602432776054
10
12.56468364787411
20
45.608697943645723
10
12.574363526265337
20
45.572182360190105
10
12.586316423844243
20
45.535650727337291
10
12.601318586103607
20
45.501025395849588
10
12.618597602878449
20
45.466821578051011
10
12.638453957996624
20
45.433848257266611
10
12.660879443175602
20
45.402220669061144
10
12.685292369402596
20
45.37082297658845
10
12.712084768778048
20
45.340596106964426
10
12.741166707512775
20
45.311443871370884
10
12.772464754700433
20
45.283298078816074
10
12.805732984458949
20
45.255724072340804
10
12.840964063981769
20
45.228782969764687
10
12.878233233297793
20
45.202701977201933
10
12.917499992508914
20
45.177461909402119
10
12.987522063278945
20
45.131329737934522
10
13.055774319628918
20
45.081562301539797
10
13.122593748860989
20
45.028889002169556
10
13.188153818795277
20
44.973698918517222
10
13.252561830426018
20
44.916243537712347
10
13.315890432076507
20
44.856702255373051
10
13.378191399757394
20
44.795211091812313
10
13.439502861441206
20
44.731877754990691
10
13.499853433700018
20
44.666790178420143
10
13.559264801904138
20
44.600021958509871
10
13.617753473744202
20
44.531635919540797
10
13.675331872492521
20
44.461686527107112
10
13.732009287421295
20
44.390221686641979
10
13.787792386663858
20
44.317283979969162
10
13.842685788004502
20
44.242911676962294
10
13.89669234220551
20
44.167139478993043
10
13.949813424623734
20
44.089999073534059
10
14.002049214511118
20
44.01151964197318
10
14.053398824682692
20
43.931728195295811
10
14.103860448168742
20
43.85064992105498
10
14.06933845078143
20
43.787973431480616
10
14.034471981166485
20
43.725487902580014
10
13.999262108239874
20
43.663195237469658
10
13.963709907030848
20
43.601097317897661
10
13.927816432750211
20
43.539196022395359
10
13.891582796695612
20
43.477493222409393
10
13.855010082254873
20
43.415990806149338
10
13.818099405941959
20
43.354690617661817
10
13.780851874832836
20
43.293594517312002
10
13.743268621838444
20
43.232704370913297
10
13.647855294051324
20
43.236748994020019
10
13.553125435924645
20
43.24219978556431
10
13.459101862191588
20
43.249067569457893
10
13.365808524085992
20
43.257364858271714
10
13.273270744083945
20
43.267106163880882
10
13.181515429513734
20
43.278308275151716
10
13.090571391080898
20
43.290990742271148
10
13.000469674701488
20
43.305176420487101
10
12.911244071453652
20
43.320892055285086
10
12.82293171897857
20
43.338169307886261
10
12.735573921963628
20
43.35704578645835
10
12.64921726061729
20
43.377566772941208
10
12.563915133554037
20
43.399787352043802
10
12.479730021916865
20
43.423775698961499
10
12.396736939555957
20
43.449617995581903
10
12.315028835133591
20
43.477426240315459
10
12.234726151187257
20
43.507351933528369
10
12.155995049681948
20
43.539612221697638
10
12.079088924309122
20
43.574549538987014
10
12.004477017009696
20
43.612816114194814
10
11.963184685875248
20
43.634584962356428
10
11.922142984176984
20
43.654200972947848
10
11.881355134968842
20
43.671619450228512
10
11.840981930013129
20
43.687017674707924
10
11.801080188024965
20
43.700419332604383
10
11.761392478894372
20
43.711396478142632
10
11.721895560429152
20
43.719851637200662
10
11.682549931818759
20
43.725659183855839
10
11.643981912740227
20
43.729623340028766
10
11.605506209701652
20
43.730688720361535
10
11.567227188733264
20
43.728904868080853
10
11.529701331206075
20
43.724931386742142
10
11.492015965554332
20
43.717365336047536
10
11.455462825904785
20
43.707828260359832
10
11.41855146207217
20
43.69406929808153
10
11.382931988926773
20
43.678085088584943
10
11.346789631047162
20
43.657063136950455
10
11.311636849231615
20
43.632538886707366
10
11.274703397283153
20
43.599966860020068
10
11.233044952145391
20
43.553306463761068
10
11.226027452321809
20
43.544157247296894
10
11.219000144029085
20
43.535015568052501
10
11.211963023663872
20
43.525881437474581
10
11.204916129358812
20
43.516754856055968
10
11.197854548259521
20
43.507639623889382
10
11.190792150995307
20
43.498523338480489
10
11.183715910741626
20
43.489419490664112
10
11.176629919043627
20
43.48032322262042
10
11.169534165348733
20
43.471234567324828
10
11.162428662733044
20
43.462153525195077
10
11.127657746816549
20
43.410157352961612
10
11.105347644990784
20
43.366256598766114
10
11.090385092065322
20
43.326090955574095
10
11.079061005836939
20
43.285842259355142
10
11.072484203265017
20
43.247358658158049
10
11.068384867201452
20
43.208180180341884
10
11.068283983874828
20
43.170403497998599
10
11.070374513867769
20
43.132023013017616
10
11.075903796320967
20
43.094694665169094
10
11.08374144379682
20
43.057184175389835
10
11.094387086735098
20
43.020195190358201
10
11.107862620446699
20
42.983841144131496
10
11.123317374945316
20
42.947194772150468
10
11.141373555927473
20
42.911063474576537
10
11.161919397508292
20
42.875377618441817
10
11.184866322475781
20
42.840090338524448
10
11.209864287331452
20
42.804845442686521
10
11.236922026531484
20
42.769703860856076
10
11.266171021344547
20
42.734865585364375
10
11.297567189322468
20
42.700322567674277
10
11.353263430209715
20
42.637639265826053
10
11.40630928778787
20
42.571902629464418
10
11.457219046861237
20
42.503729989301505
10
11.506260965530446
20
42.433452266881851
10
11.553603781522328
20
42.361284610911909
10
11.599364095081128
20
42.287381500442379
10
11.643627125532621
20
42.211860920893727
10
11.686457576006511
20
42.134817040528525
10
11.727905847807493
20
42.056327392820656
10
11.7680119360319
20
41.976457451135389
10
11.806808044454515
20
41.895263627150079
10
11.844320272917127
20
41.812795316248994
10
11.880569989759486
20
41.729096387664995
10
11.915574657442033
20
41.644206243032649
10
11.949348644069538
20
41.558160657225322
10
11.981903680250612
20
41.470992410939715
10
12.013249300170761
20
41.382731751600829
10
12.043393229205801
20
41.293406825314705
10
12.07234159580292
20
41.203043948898511
10
12.100099180632458
20
41.111667921765672
10
12.050531621646972
20
41.060062031672899
10
12.000680752603241
20
41.008729752293867
10
11.950548100526252
20
40.957672644408532
10
11.900135185736501
20
40.906892246912335
10
11.849443518333942
20
40.856390100625575
10
11.798474652670144
20
40.806167727988935
10
11.747230128988617
20
40.75622667053387
10
11.695711495347991
20
40.706568421780418
10
11.643920308140853
20
40.657194489914758
10
11.591858145709814
20
40.608106386714297
10
11.500742774213348
20
40.636707979946962
10
11.41065152564072
20
40.666490932003811
10
11.321609239997274
20
40.697459793668216
10
11.233642292575436
20
40.729620451459034
10
11.146778896482395
20
40.762980369335004
10
11.061049388678734
20
40.797548800812258
10
10.976486656097041
20
40.833337173176574
10
10.89312660406452
20
40.870359526015967
10
10.81100879623169
20
40.90863294985936
10
10.730177296111806
20
40.948178411178432
10
10.65068173584142
20
40.989021551751996
10
10.572578827708959
20
41.031194051722053
10
10.49593440994563
20
41.074735296338176
10
10.420826477287875
20
41.119694970646705
10
10.347349794505149
20
41.166136903779545
10
10.275623129077978
20
41.214145218808426
10
10.205802033098124
20
41.263835083873524
10
10.138103205100785
20
41.315373236922504
10
10.072860036042911
20
41.369024864540705
10
10.010694586004679
20
41.425298519666136
10
9.9764434497345089
20
41.457012854890195
10
9.9418772072823849
20
41.486582839975632
10
9.9069874029804694
20
41.513964468377168
10
9.871975236259928
20
41.539287365339334
10
9.8369017176628795
20
41.562559704675508
10
9.8014074277256302
20
41.583434746461386
10
9.7654446905423775
20
41.601824358543489
10
9.7289428358831369
20
41.617617416637806
10
9.6927149881511561
20
41.631428635574331
10
9.6558260558923763
20
41.642415957721369
10
9.6183896637115058
20
41.65060022891214
10
9.5811140573116109
20
41.656474547852895
10
9.5427545512769107
20
41.658919992848318
10
9.5049785524001056
20
41.659168534295965
10
9.4657638323643027
20
41.65543176188531
10
9.4272210444437796
20
41.649211199150436
10
9.3868693260674565
20
41.638259882850633
10
9.3465670031056902
20
41.623669487168669
10
9.3024617668727281
20
41.601766405438532
10
9.2501462000617192
20
41.567477922709848
10
9.2409998245297302
20
41.560456720599063
10
9.2318459256513599
20
41.553445337528828
10
9.2226845025815063
20
41.546443786924257
10
9.2135155907535111
20
41.53945205602453
10
9.2043354326455464
20
41.532475088905549
10
9.1951542127938009
20
41.525497317117782
10
9.1859628400955931
20
41.518535140500845
10
9.1767640099005181
20
41.5115828094834
10
9.1675577204311356
20
41.504640357882622
10
9.1583439861520315
20
41.4977077851362
10
9.111300261503132
20
41.456482714812125
10
9.0783880059601501
20
41.419852121557284
10
9.0535396558329904
20
41.384927684412673
10
9.0321842993480832
20
41.348981317510507
10
9.0158713064855718
20
41.313511215017428
10
9.0017715173760458
20
41.276728697406817
10
8.991896746081796
20
41.240265334551147
10
8.9839824421259813
20
41.202651564953698
10
8.9796620307161472
20
41.165164065966017
10
8.9775241887435548
20
41.12690318229582
10
8.9782336362131741
20
41.08841927128158
10
8.9818408823097524
20
41.049816234593038
10
8.9872842505288748
20
41.010418571237715
10
8.9953737149821773
20
40.970845136553741
10
9.0059832932567883
20
40.931057590285597
10
9.019015302077829
20
40.891033594601573
10
9.0340394295202024
20
40.850519688750765
10
9.0510798897480278
20
40.809572469976445
10
9.0703154404071071
20
40.768351083196023
10
9.0917014182150524
20
40.726859163688772
10
9.1292762223542159
20
40.651896496029522
10
9.1635006922702882
20
40.574670503488491
10
9.1950313667390269
20
40.49564437372338
10
9.2242130097631083
20
40.415068324139447
10
9.251264294275698
20
40.333106498604238
10
9.27633783174816
20
40.249877935599599
10
9.2995464707620972
20
40.165474541407214
10
9.3209770850839142
20
40.079970531369675
10
9.3406984260156847
20
39.993427751805541
10
9.3587660706395503
20
39.905899092464267
10
9.375225725513312
20
39.817430709629093
10
9.3901153852452701
20
39.728063559401527
10
9.4034670477807474
20
39.637834485383088
10
9.415307773937565
20
39.546777027511887
10
9.425660702054202
20
39.454922023289285
10
9.4345456518561477
20
39.362298098922757
10
9.4419796559775246
20
39.268932006195463
10
9.447977462059157
20
39.174848929842142
10
9.4525518045989987
20
39.080072704713842
10
9.4557137157237587
20
38.984626047192542
10
9.3944785442664642
20
38.947607615492608
10
9.333040531120032
20
38.910926793806723
10
9.2714015551611091
20
38.874584700190695
10
9.2095634841978189
20
38.838582425396865
10
9.1475281765540046
20
38.802921067740812
10
9.0852975267166194
20
38.767601692996649
10
9.0228734199164187
20
38.732625394569872
10
8.9602577409017314
20
38.697993214128047
10
8.8974523833083428
20
38.663706203031758
10
8.8344592587705275
20
38.629765417329047
10
8.7538512056772149
20
38.680974826793914
10
8.6745381361507707
20
38.733060280271474
10
8.5965452248496792
20
38.78601974278638
10
8.5198994691518131
20
38.839852074686682
10
8.444630053439262
20
38.894557182801471
10
8.370768676301175
20
38.950136152420107
10
8.2983500613783896
20
39.006591510854619
10
8.2274125246508394
20
39.063927525988163
10
8.1579987036609793
20
39.122150468626387
10
8.0901565891857867
20
39.181269182886133
10
8.023940757876133
20
39.241295591546013
10
7.9594141879005544
20
39.302245619180958
10
7.896650668113109
20
39.364140267494946
10
7.8357383963678586
20
39.427007341067693
10
7.7767854268973604
20
39.490883967689477
10
7.7199282553866073
20
39.555820666608341
10
7.6653469383786268
20
39.62188841822212
10
7.6132939482378061
20
39.689192198523259
10
7.5641599489253588
20
39.757901865112487
10
7.5186774295473722
20
39.828347645021339
10
7.4938016457946706
20
39.867846186798893
10
7.4680664945066697
20
39.905355000555275
10
7.4414524182120889
20
39.940833768222276
10
7.4141873102586171
20
39.974355625416216
10
7.3863322166643179
20
40.005912672564314
10
7.3574502255271099
20
40.035263014229223
10
7.3274724698966631
20
40.062333854929371
10
7.2963019298303697
20
40.087036153577394
10
7.264883123877838
20
40.109753223398464
10
7.2320948781960768
20
40.129913720579921
10
7.1980523461045989
20
40.147508370366928
10
7.1635672604877421
20
40.162830162912648
10
7.1271477505903977
20
40.175120453148701
10
7.0907232643545548
20
40.18513767372994
10
7.0518776054081842
20
40.191677744028638
10
7.0130381318053727
20
40.195644750471359
10
6.9712269555435489
20
40.195510384584679
10
6.9285216285106079
20
40.191848152693268
10
6.8802503077389154
20
40.182106675300808
10
6.8208428372380805
20
40.162526809411652
10
6.8101908964155902
20
40.158112106221104
10
6.7995342294276728
20
40.153708833221692
10
6.7888728394795939
20
40.149317004656211
10
6.778206758433897
20
40.144936600151212
10
6.7675336342807935
20
40.140573367961608
10
6.7568592768851214
20
40.136209631329017
10
6.7461791478625708
20
40.131863588834719
10
6.7354943645251346
20
40.127528984120609
10
6.7248049348116981
20
40.123205854371101
10
6.7141108684629014
20
40.11889419455305
10
6.6580002850489803
20
40.09124964514114
10
6.6167287938796999
20
40.064385528333382
10
6.5836880199536827
20
40.037082338093555
10
6.5537567268847132
20
40.007887987012452
10
6.5288192468260124
20
39.977848611198482
10
6.5056798800085511
20
39.945968721609397
10
6.4867041709999738
20
39.913303598442042
10
6.4693243799378317
20
39.87901985752621
10
6.4554487048836906
20
39.843927919778238
10
6.4434810625408421
20
39.807524058163047
10
6.4342059675308807
20
39.770167836398699
10
6.4276990982554185
20
39.731946541712581
10
6.4227601221152515
20
39.692482475668498
10
6.4203315858131296
20
39.652163762849668
10
6.4202818766790504
20
39.610985984053784
10
6.4225108577565306
20
39.568952841179041
10
6.426537281384932
20
39.525930883297605
10
6.4323991811167547
20
39.481968511162243
10
6.4403104166844223
20
39.437173181985116
10
6.4502287870839812
20
39.391559967748066
10
6.4671214949314102
20
39.309426515436932
10
6.48019223590543
20
39.225973990590539
10
6.4901950616010398
20
39.141479872027382
10
6.4975277479682392
20
39.056096619450791
10
6.5024440008941422
20
38.969926188278279
10
6.5051220400434149
20
38.883044059762582
10
6.5056946582239501
20
38.79550980447884
10
6.5042649761512656
20
38.707372621783236
10
6.5009154092880088
20
38.618674457077418
10
6.4957133293353948
20
38.529452014258624
10
6.4887148331893822
20
38.439738046361398
10
6.4799672198172846
20
38.349562280209064
10
6.4695109313004924
20
38.258952022394141
10
6.4573807907890535
20
38.167932667036354
10
6.4436071283720526
20
38.076528011476441
10
6.4282164939425366
20
37.984760576706321
10
6.4112322676123252
20
37.892651793354666
10
6.3926752113756988
20
37.800222174182096
10
6.3725637951347665
20
37.707491444873035
10
6.3509145550656934
20
37.614478690165697
10
6.2821848446859816
20
37.59457045912518
10
6.2133465859926211
20
37.575040834445268
10
6.1444018803559359
20
37.555890407318742
10
6.0753528176784943
20
37.537119750804813
10
6.0062014730005835
20
37.518729443195582
10
5.9369499548997338
20
37.500720025758248
10
5.8676003661524927
20
37.483092064024135
10
5.7981547957795989
20
37.465846075518762
10
5.7286153473344541
20
37.448982589243627
10
5.6589841395704603
20
37.432502127645193
10
5.5943767099482535
20
37.502829518556801
10
5.5312468763660974
20
37.573667936404746
10
5.4696184248040227
20
37.645008899114622
10
5.4095171422592747
20
37.716844319920625
10
5.3509711936090678
20
37.789166555113496
10
5.2940114774382536
20
37.861968448440464
10
5.238672190814297
20
37.935243454858188
10
5.1849914446188485
20
38.008985778109761
10
5.1330120481718611
20
38.083190439475928
10
5.0827826457058176
20
38.157853563770921
10
5.0343590429364413
20
38.232972541144946
10
4.9878061904394553
20
38.308546451472417
10
4.9432007996236651
20
38.384576485566356
10
4.9006352583725104
20
38.461066671063271
10
4.8602235515675041
20
38.538024906733689
10
4.822110595080666
20
38.615464659835489
10
4.7864886826406741
20
38.693407892062147
10
4.7536288565588594
20
38.771890656826407
10
4.7239524285181052
20
38.850975913417571
10
4.698252396642852
20
38.93079305419554
10
4.684447210216697
20
38.975384041344398
10
4.6692969574458019
20
39.018275520179934
10
4.6527723161585639
20
39.059433609048021
10
4.6351123381336574
20
39.098869964969019
10
4.6163739494936582
20
39.136561160969556
10
4.5960725140995642
20
39.172386622097036
10
4.5741226764121095
20
39.206293862127573
10
4.550407671024991
20
39.23822197930064
10
4.5259390444824996
20
39.268296768663987
10
4.4994859519271326
20
39.296256536461513
10
4.4711572230120353
20
39.322062517556915
10
4.4418127592806584
20
39.34578763070315
10
4.4098151756570569
20
39.367085202372991
10
4.3772244720618652
20
39.386188444814493
10
4.3413951417586336
20
39.402559664045626
10
4.3049058258939583
20
39.416443893612019
10
4.2644845555556277
20
39.427135635142029
10
4.2222865224613191
20
39.434651141602608
10
4.1731387259759618
20
39.437735135077816
10
4.1106878736269765
20
39.434198221464996
10
4.0992562810189401
20
39.432690870031138
10
4.087823078680036
20
39.431195783336783
10
4.0763882794385822
20
39.429712973615061
10
4.0649519029688008
20
39.428242413581636
10
4.0535131702395253
20
39.426790262329007
10
4.0420731134656593
20
39.425337944689709
10
4.0306320639257525
20
39.423904208799392
10
4.0191894766933531
20
39.422482728511191
10
4.0077453705653996
20
39.421073534489452
10
3.9962997575334218
20
39.419676617120423
10
3.9349461609690839
20
39.407496521613595
10
3.8881280161529137
20
39.392229624494291
10
3.8491464935462067
20
39.374408349400895
10
3.8126790300134354
20
39.353955561398983
10
3.7808165126444742
20
39.331394047857763
10
3.7502144770466628
20
39.306589348589867
10
3.7234309937113008
20
39.279948534942896
10
3.6977701191030992
20
39.251331206428979
10
3.6752847849749379
20
39.221026285987286
10
3.6543029166155456
20
39.188960309345873
10
3.6356753622104487
20
39.155277541921464
10
3.619497810382692
20
39.12004270768837
10
3.6045130723779324
20
39.083201648367243
10
3.5917320370956967
20
39.04488531430485
10
3.5810264284965769
20
39.005123499376829
10
3.5723004810158789
20
38.963945698765961
10
3.5650548046573851
20
38.921347562551567
10
3.559338666612887
20
38.877366001096696
10
3.5553864488301228
20
38.83204945762327
10
3.5531612890854407
20
38.785423412427633
10
3.548220691175116
20
38.701716435293932
10
3.5392469546442795
20
38.617724529261793
10
3.5270402547259105
20
38.53352055625632
10
3.5120242743437728
20
38.449148828453247
10
3.4944704606236119
20
38.364642163524209
10
3.4745704988267541
20
38.280027344860954
10
3.4524680736729261
20
38.195327541955002
10
3.4282755243752021
20
38.110563589939055
10
3.4020833172856064
20
38.025754674032214
10
3.3739660266170013
20
37.940918809003549
10
3.3439863148779789
20
37.856073114123262
10
3.312197562519454
20
37.771234062700657
10
3.2786459047656868
20
37.686417560862843
10
3.2433715462084005
20
37.601639126868413
10
3.2064099427007386
20
37.516913895055232
10
3.1677925713949247
20
37.432256748339128
10
3.1275475611179999
20
37.347682338733016
10
3.08570027687469
20
37.26320510076927
10
3.0422736600824156
20
37.178839311753137
10
2.997288628276598
20
37.094599126122361
10
2.9257481967365822
20
37.09315780827994
10
2.8542009057460715
20
37.092110292020081
10
2.7826489398765615
20
37.09145660443739
10
2.7110944627328504
20
37.091196754818355
10
2.6395396313833559
20
37.091330766591938
10
2.5679866210460949
20
37.091858615973521
10
2.4964376093288569
20
37.09278030707879
10
2.4248947504006262
20
37.094095797960748
10
2.3533602084050256
20
37.095805055204004
10
2.281836169836255
20
37.097908033442522
10
2.2376322526427104
20
37.182560710670856
10
2.1949878478072233
20
37.267324571596248
10
2.1539237352286813
20
37.35218526579834
10
2.1144627300604952
20
37.437128311451211
10
2.0766300586348132
20
37.522139032783343
10
2.0404537137313499
20
37.607202521178614
10
2.0059650337167909
20
37.692303603258658
10
1.973199331896522
20
37.777426816544398
10
1.9421966702343609
20
37.862556273222374
10
1.9130030324781753
20
37.947675640010615
10
1.8856716449068291
20
38.032767950447514
10
1.8602650101320293
20
38.117815506901742
10
1.836857532059982
20
38.202799605543326
10
1.815539493654819
20
38.287700223942835
10
1.7964230392425038
20
38.372495489607786
10
1.7796516323346754
20
38.457160906670353
10
1.7654167015500315
20
38.541667917441586
10
1.7539893796238575
20
38.625981195526137
10
1.7457929218809689
20
38.710052512455647
10
1.7416267937603931
20
38.793801606999054
10
1.7398330044579433
20
38.840446238841672
10
1.7363001173381463
20
38.885797400652102
10
1.7309910360717142
20
38.929829952919334
10
1.7241396877258952
20
38.972493285761715
10
1.715794992476158
20
39.013750037800968
10
1.7054576249491504
20
39.053609174939751
10
1.6930315471641597
20
39.092042089193818
10
1.678388217109622
20
39.129020176365017
10
1.6625372669270042
20
39.16440313960787
10
1.6442220615612571
20
39.198256764471331
10
1.6235376900298379
20
39.23051544281995
10
1.6013336260137869
20
39.261027048740054
10
1.5759385505650276
20
39.289880507199385
10
1.5494026302762207
20
39.316767917180655
10
1.5190313390271906
20
39.341854613872648
10
1.4873788691751313
20
39.36470987915159
10
1.4511021473312349
20
39.385499103748323
10
1.4122871333697824
20
39.403680180622317
10
1.3656122043272783
20
39.419379474630844
10
1.3043738932988289
20
39.432126548808625
10
1.2929416903028339
20
39.433629273143112
10
1.281511109028552
20
39.435144260912772
10
1.2700821598859386
20
39.43667152000414
10
1.2586548601052507
20
39.438211019053277
10
1.247230048052677
20
39.439768911924858
10
1.2358039141317159
20
39.441326983943469
10
1.2243816309539948
20
39.442903264392221
10
1.2129610345193502
20
39.444491778135877
10
1.2015421514676143
20
39.446092554790852
10
1.1901249889825058
20
39.447705578740575
10
1.1277095237354227
20
39.451819990200498
10
1.0785353044686821
20
39.44919072745715
10
1.0362695604936518
20
39.442065856799147
10
0.99575112359533491
20
39.431748455916591
10
0.95913494626323659
20
39.418202333624052
10
0.92315572058607565
20
39.402163222707209
10
0.89038971341875273
20
39.38336224931939
10
0.85819650312079387
20
39.362361555060296
10
0.8286338471289455
20
39.338908881729367
10
0.80006763368539413
20
39.313366035172486
10
0.77335705491916573
20
39.285652145171269
10
0.74861129389691405
20
39.255804968183703
10
0.72460198086645189
20
39.224097571239383
10
0.70233945142755383
20
39.190394810273133
10
0.68170751304690591
20
39.154758661838599
10
0.66262129559213567
20
39.117242402389543
10
0.64459730196633847
20
39.07797108141547
10
0.6276926694151026
20
39.036967602084893
10
0.61214633510743277
20
38.994218090967848
10
0.5979292879433542
20
38.949756703362532
10
0.57149207727798323
20
38.870180693159206
10
0.54108540890041879
20
38.791373314971111
10
0.50750105033157189
20
38.713197850219416
10
0.47115971676695173
20
38.635587441207576
10
0.43233210007348899
20
38.55850353192443
10
0.39121028638471145
20
38.481922382688474
10
0.34793906075726133
20
38.405829183901162
10
0.30263232848641131
20
38.330214985929977
10
0.25538243661383875
20
38.255074905688993
10
0.20626608038665134
20
38.180407043481921
10
0.15534822245818247
20
38.106211715822965
10
0.10268468230749489
20
38.032491019095048
10
0.048324143463166866
20
37.959248377984814
10
-0.0076905437082254967
20
37.886488374583735
10
-0.0653212149642729
20
37.814216451317357
10
-0.12453361160506976
20
37.742438838838048
10
-0.18529677482556317
20
37.671162406537448
10
-0.24758246745308393
20
37.600394536648217
10
-0.31136482946013905
20
37.530143076619296
10
-0.37661999895111886
20
37.460416287890126
10
-0.44609578781473203
20
37.477540109064627
10
-0.51547628119029898
20
37.495046088677036
10
-0.58475936099915327
20
37.512933684109441
10
-0.65394293201452414
20
37.531202351742394
10
-0.72302490744443604
20
37.549851549521364
10
-0.79200319020073251
20
37.568880695425925
10
-0.86087567787825292
20
37.588289227090272
10
-0.92964029896435352
20
37.608076548127741
10
-0.99829497115326338
20
37.628242064919547
10
-1.0668375969688833
20
37.648785169779451
10
-1.0876255766526395
20
37.741994193441627
10
-1.1068784073280455
20
37.834906979374288
10
-1.1245797305612479
20
37.927504290036836
10
-1.1407112567005808
20
38.019766231065844
10
-1.1552524182057886
20
38.111672098167936
10
-1.1681800325841998
20
38.203200244586462
10
-1.17946775862384
20
38.294327905503941
10
-1.1890854863022056
20
38.385031004028754
10
-1.1969986342092771
20
38.475283824189226
10
-1.203167008316417
20
38.56505868777807
10
-1.2075435915017394
20
38.654325431824439
10
-1.2100725891834563
20
38.743050784161156
10
-1.2106869735266115
20
38.83119742052407
10
-1.2093047198240461
20
38.918722635098547
10
-1.2058231677745361
20
39.005576275682891
10
-1.2001100799242259
20
39.091697547329389
10
-1.1919879438716667
20
39.177009322388528
10
-1.1812040065989495
20
39.26140730447554
10
-1.1673619199026659
20
39.344735359829855
10
-1.1497102287751104
20
39.426709046510389
10
-1.1393703781838718
20
39.472228568389681
10
-1.1310451408303481
20
39.516948804858828
10
-1.1247768565497571
20
39.560855074645637
10
-1.1203526681884013
20
39.603837950233512
10
-1.117734990477002
20
39.645848678102794
10
-1.1174038169177809
20
39.687025155813593
10
-1.1194593166674365
20
39.727364605908001
10
-1.1240330529661653
20
39.766872668236488
10
-1.1301861113927325
20
39.805152513390645
10
-1.1391152779745921
20
39.842592928547042
10
-1.1507456855110456
20
39.87910592938502
10
-1.1642961803501495
20
39.914324711121068
10
-1.1813581152806467
20
39.948767740485565
10
-1.2000308719243331
20
39.98160698582906
10
-1.2228743718274173
20
40.013699542465872
10
-1.247532930592445
20
40.043968295714471
10
-1.2771929074295074
20
40.073438250599764
10
-1.3099797231426109
20
40.101045887566109
10
-1.3510009662900211
20
40.128290601799357
10
-1.4068534467250304
20
40.156452971436224
10
-1.4175071748055414
20
40.160863363397468
10
-1.4281561599167847
20
40.165285181088628
10
-1.4388003920363546
20
40.169718429815731
10
-1.4494398638640011
20
40.174163075348616
10
-1.460072174373366
20
40.178624842459755
10
-1.4707057120542613
20
40.183087125587882
10
-1.481330820018242
20
40.187566000375696
10
-1.491951129807044
20
40.192056255105733
10
-1.5025666133244138
20
40.196557909650615
10
-1.5131772645924069
20
40.201070952523651
10
-1.5724010858448232
20
40.221199477693126
10
-1.6205802374280296
20
40.231387030362072
10
-1.6632498640995144
20
40.235444114646114
10
-1.7050580073492774
20
40.235965212188951
10
-1.7439325135200876
20
40.232357626161352
10
-1.7828370033863767
20
40.226177144163096
10
-1.8193525868419937
20
40.216497265771842
10
-1.8558842196948317
20
40.204544368192941
10
-1.8905095526633739
20
40.189542204808113
10
-1.9247133704619777
20
40.172263188033241
10
-1.9576866908079125
20
40.152406833148142
10
-1.9893142784274871
20
40.129981348735029
10
-2.0207119704436614
20
40.105568422634605
10
-2.0509388400676802
20
40.078776023259152
10
-2.0800910756672701
20
40.049694084532376
10
-2.1082368690789806
20
40.018396036792588
10
-2.1358108761800945
20
39.985127806446719
10
-2.1627519787861846
20
39.949896726913693
10
-2.1888329710164633
20
39.912627557813089
10
-2.2140730386873249
20
39.873360798496577
10
-2.2602052096796044
20
39.803338728683869
10
-2.309972647005007
20
39.735086471258612
10
-2.3626459458640223
20
39.668267042576929
10
-2.4178360300162502
20
39.602706973977448
10
-2.4752914108324413
20
39.538298960461532
10
-2.5348326922634006
20
39.474970359538048
10
-2.5963238563191409
20
39.412669391467922
10
-2.6596571943241942
20
39.351357930845808
10
-2.7247447689094835
20
39.291007358066928
10
-2.7915129898477637
20
39.231595989397718
10
-2.8598990285991857
20
39.173107317724728
10
-2.9298484224835426
20
39.115528919936352
10
-3.0013132607110489
20
39.058851504322057
10
-3.0742509693145315
20
39.003068405746674
10
-3.1486232722567382
20
38.948175004431214
10
-3.2243954691645356
20
38.894168451312538
10
-3.3015358757986051
20
38.841047367795866
10
-3.3800153065177052
20
38.788811576800263
10
-3.4598067529519567
20
38.737461968458433
10
-3.5408850274898085
20
38.687000342718783
10
-3.6035615159029009
20
38.721522341354422
10
-3.6660470459458105
20
38.75638881171448
10
-3.7283397111943755
20
38.791598683009674
10
-3.7904376302598601
20
38.827150886487203
10
-3.8523389263411563
20
38.863044359265196
10
-3.9140417258315403
20
38.899277996527076
10
-3.9755441423846571
20
38.935850709035563
10
-4.0368443305017703
20
38.972761387584036
10
-4.0979404319699402
20
39.010008917424543
10
-4.1588305765641307
20
39.047592170105737
10
-4.154785953664712
20
39.143005498018574
10
-4.1493351623741921
20
39.237735357274623
10
-4.1424673786996644
20
39.331758931326441
10
-4.1341700890512376
20
39.425052268547411
10
-4.1244287831572555
20
39.517590047961214
10
-4.1132266731863867
20
39.609345361792947
10
-4.1005442047669947
20
39.700289400964245
10
-4.0863585281511572
20
39.790391117983368
10
-4.0706428918298831
20
39.879616721004766
10
-4.0533656401898863
20
39.967929073876554
10
-4.0344891605737558
20
40.055286870073552
10
-4.0139681742045017
20
40.141643531941227
10
-3.9917475955959154
20
40.226945659329765
10
-3.9677592490491458
20
40.311130771281604
10
-3.9419169514550778
20
40.394123852995335
10
-3.9141087075682091
20
40.475831958078423
10
-3.8841830134241286
20
40.556134640910443
10
-3.8519227253405171
20
40.634865742363189
10
-3.8169854080450785
20
40.711771867728068
10
-3.7787188328433059
20
40.786383775035432
10
-3.7569499846757215
20
40.827676106161931
10
-3.7373339739072446
20
40.868717808392113
10
-3.7199154968035981
20
40.909505657068351
10
-3.7045172721782436
20
40.949878862526184
10
-3.6911156144277211
20
40.989780604012225
10
-3.6801384688955139
20
41.029468313150758
10
-3.6716833108643931
20
41.068965232675012
10
-3.6658757631762557
20
41.108310860218403
10
-3.6619116058577634
20
41.146878880239669
10
-3.6608462265899315
20
41.185354582797089
10
-3.6626300789512545
20
41.223633603303924
10
-3.6666035590252486
20
41.26115946162389
10
-3.6741696108716582
20
41.298844826628134
10
-3.6837066863136663
20
41.335397967997679
10
-3.6974656489566455
20
41.372309329972971
10
-3.7134498573068688
20
41.407928804009366
10
-3.7344718100816254
20
41.444071160990035
10
-3.7589960588120124
20
41.479223943955233
10
-3.7915680855053639
20
41.516157395911662
10
-3.8382284817643808
20
41.557815841049404
10
-3.8473776983021017
20
41.564833340804519
10
-3.8565193789795842
20
41.571860648008105
10
-3.8656535084106407
20
41.57889776931647
10
-3.8747800911830015
20
41.585944663715075
10
-3.8838953231487796
20
41.593006243785631
10
-3.8930116073319376
20
41.60006864200674
10
-3.9021154554391124
20
41.607144882478494
10
-3.9112117244117082
20
41.614230872993559
10
-3.9203003805965606
20
41.621326627941414
10
-3.9293814206576578
20
41.628432130506781
10
-3.9813775940704801
20
41.663203045220634
10
-4.0252783480108985
20
41.685513147633429
10
-4.0654439900249093
20
41.700475701061031
10
-4.1056926862438576
20
41.711799787289372
10
-4.1441762878471318
20
41.718376589900274
10
-4.1833547666962669
20
41.722475924843678
10
-4.2211314490506062
20
41.722576808837893
10
-4.259511934014494
20
41.720486278169446
10
-4.2968402814286124
20
41.714956997716385
10
-4.3343507718091345
20
41.707119348898011
10
-4.3713397551611788
20
41.696473706451734
10
-4.4076938013879365
20
41.682998172740128
10
-4.4443401756942027
20
41.667543418492727
10
-4.4804714720775767
20
41.649487236221034
10
-4.5161573293233772
20
41.628941395933268
10
-4.5514446077312858
20
41.605994470561086
10
-4.5866895050589207
20
41.580996506140153
10
-4.6218310859135698
20
41.553938765876801
10
-4.6566693610480696
20
41.52468977125465
10
-4.6912123782138035
20
41.493293603632537
10
-4.7538956801752708
20
41.437597362729733
10
-4.8196323172600621
20
41.384551506819321
10
-4.8878049571182318
20
41.333641745744586
10
-4.9580826790870827
20
41.284599827476463
10
-5.03025033548343
20
41.237257011045784
10
-5.1041534454148039
20
41.191496698164151
10
-5.1796740265011838
20
41.147233668512754
10
-5.2567179061837308
20
41.104403218309315
10
-5.3352075536049632
20
41.0629549451683
10
-5.4150774965765454
20
41.022848857668428
10
-5.4962713188704058
20
40.984052748785359
10
-5.5787396304754804
20
40.946540521690082
10
-5.6624385604986136
20
40.9102908037665
10
-5.7473287024867297
20
40.875286135744815
10
-5.8333742894256071
20
40.841512150606135
10
-5.9205425369444251
20
40.808957113458497
10
-6.0088031943545612
20
40.777611493093119
10
-6.0981281213362069
20
40.747467565469854
10
-6.1884909981884162
20
40.718519198727215
10
-6.2798670263918765
20
40.690761612885581
10
-6.3314729151414708
20
40.740329172893908
10
-6.3828051958697385
20
40.790180040922763
10
-6.4338623037550589
20
40.840312692999738
10
-6.4846426998120901
20
40.890725608870689
10
-6.5351448460989108
20
40.941417276273214
10
-6.5853672198743833
20
40.992386140971234
10
-6.6353082761170343
20
41.043630665687076
10
-6.6849665248644508
20
41.095149299319715
10
-6.7343404568189804
20
41.146940486479835
10
-6.7834285600292601
20
41.199002648919375
10
-6.7548269667835488
20
41.290118020401806
10
-6.7250440147206749
20
41.380209268966482
10
-6.6940751530622702
20
41.469251554617877
10
-6.6619144952654334
20
41.557218502031752
10
-6.6285545761953504
20
41.644081898933933
10
-6.5939861458325746
20
41.729811405988968
10
-6.5581977730967349
20
41.814374137322758
10
-6.5211754206319226
20
41.897734190607167
10
-6.4829019966375467
20
41.979851998037446
10
-6.443356534530019
20
42.060683498744723
10
-6.4025133938548775
20
42.140179057722662
10
-6.3603408938787549
20
42.218281965419763
10
-6.3167996481626414
20
42.294926384164157
10
-6.2718399738497972
20
42.370034316764524
10
-6.2253980417416415
20
42.443510998684069
10
-6.177389726073498
20
42.515237664883408
10
-6.1276998627743442
20
42.585058761573578
10
-6.0761617086884367
20
42.652757588420023
10
-6.0225100809798882
20
42.718000757145511
10
-5.9662364259346914
20
42.780166207124068
10
-5.9345220914623447
20
42.814417344989543
10
-5.9049521063837416
20
42.848983587123257
10
-5.877570477061143
20
42.883873390539634
10
-5.8522475795650442
20
42.918885558077058
10
-5.8289752419723566
20
42.953959077008818
10
-5.8081001990598526
20
42.989453365463632
10
-5.7897105881846134
20
43.025416104069613
10
-5.7739175289630404
20
43.061917957245598
10
-5.7601063100258854
20
43.098145804976724
10
-5.749118987594743
20
43.135034739489626
10
-5.7409347166090434
20
43.172471129477721
10
-5.7350603986103508
20
43.209746737001282
10
-5.7326149516430638
20
43.24810624288051
10
-5.732366409962748
20
43.285882241698303
10
-5.7361031836358851
20
43.325096960824901
10
-5.7423237463204533
20
43.363639749171597
10
-5.7532750615650237
20
43.403991468221463
10
-5.7678654583525208
20
43.444293790083563
10
-5.7897685400827061
20
43.488399026316522
10
-5.8240570227490469
20
43.540714593470788
10
-5.8310782249219546
20
43.549860968659289
10
-5.83808960769744
20
43.559014869717664
10
-5.8450911597237702
20
43.568176292090406
10
-5.8520828895761223
20
43.577345202374985
10
-5.8590606455574914
20
43.586526398618417
10
-5.8660376101401246
20
43.595706556788336
10
-5.8729997855541392
20
43.604897930455159
10
-5.8799521180843008
20
43.614096759500555
10
-5.8868945696054702
20
43.623303049030461
10
-5.8938271409188339
20
43.632516784398803
10
-5.9350522115263882
20
43.679560508776277
10
-5.9716828059311409
20
43.712472763501907
10
-6.0066072431548303
20
43.737321113567766
10
-6.0425536099779276
20
43.758676470113997
10
-6.0780237115181448
20
43.774989462305484
10
-6.1148062300810135
20
43.789089252085212
10
-6.1512695929366936
20
43.798964023379469
10
-6.1888833625347797
20
43.806878327336072
10
-6.2263708615224189
20
43.811198738745915
10
-6.2646317452722355
20
43.813336580658017
10
-6.3031156550795586
20
43.812627131765645
10
-6.3417186921202617
20
43.809019885799216
10
-6.3811163563303399
20
43.803576518872696
10
-6.4206897920662289
20
43.795487053546076
10
-6.4604773383322369
20
43.784877475096977
10
-6.5005013329731014
20
43.771845467054298
10
-6.5410152387402301
20
43.756821337582245
10
-6.5819624575120077
20
43.739780879714033
10
-6.6231838443934175
20
43.720545328514547
10
-6.6646757626723909
20
43.699159349763747
10
-6.7396384303316363
20
43.661584545624557
10
-6.8168644242672825
20
43.62736007490124
10
-6.8958905531723049
20
43.595829400958095
10
-6.9764666024673794
20
43.566647757827646
10
-7.0584284274805187
20
43.539596472379884
10
-7.1416569908775358
20
43.514522935888287
10
-7.2260603853321168
20
43.491314296791465
10
-7.3115643950711364
20
43.469883682834379
10
-7.3981071746698017
20
43.450162339534671
10
-7.4856358350617338
20
43.432094696116444
10
-7.5741042170037076
20
43.415635040123618
10
-7.6634713669856191
20
43.400745380124476
10
-7.7537004412336819
20
43.387393717719377
10
-7.8447578985691644
20
43.375552992523922
10
-7.9366129034603095
20
43.365200063295681
10
-8.0292368278208031
20
43.35631511348577
10
-8.122602920548136
20
43.348881109364413
10
-8.2166859969074686
20
43.342883303290741
10
-8.3114622215891565
20
43.338308960658054
10
-8.4069088784255595
20
43.335147048137301
10
-8.4439273112873465
20
43.396382220679641
10
-8.4806081330753376
20
43.457820233891944
10
-8.5169502265589241
20
43.519459210188778
10
-8.5529525017339889
20
43.581297278513617
10
-8.5886138604419173
20
43.643332587706745
10
-8.6239332330267491
20
43.705563237306471
10
-8.6589095310482485
20
43.767987343944633
10
-8.6935417137904061
20
43.830603022992555
10
-8.7278287239284307
20
43.89340838175719
10
-8.7617695107822247
20
43.956401505138942
10
-8.7105601013888379
20
44.037009558583506
10
-8.6584746470081306
20
44.116322626870463
10
-8.6055151854759622
20
44.194315539350519
10
-8.5516828532329416
20
44.270961295037722
10
-8.4969777454608444
20
44.346230710760963
10
-8.4413987757625968
20
44.420092087959581
10
-8.3849434173280795
20
44.492510702882342
10
-8.3276074025342091
20
44.563448239450153
10
-8.2693844619028649
20
44.632862061100042
10
-8.2102657464122117
20
44.700704176213847
10
-8.1502393380342859
20
44.766920007301529
10
-8.0892893114206341
20
44.831446577063701
10
-8.027394662889284
20
44.894210096620739
10
-7.9645275882847208
20
44.955122368936941
10
-7.9006509619174468
20
45.014075338466512
10
-7.8357142639542419
20
45.070932511344822
10
-7.7696465114748623
20
45.125513827158308
10
-7.7023427311714183
20
45.177566817186005
10
-7.6336330642752976
20
45.226700816755745
10
-7.5631872854918978
20
45.272183337614578
10
-7.5236887437143434
20
45.297059121367283
10
-7.4861799299579666
20
45.322794272655287
10
-7.4507011610858811
20
45.349408347529547
10
-7.41717930510708
20
45.376673456696423
10
-7.3856222580668138
20
45.404528550047388
10
-7.356271916204423
20
45.433410541695345
10
-7.3292010755838719
20
45.463388297265269
10
-7.3044987769358354
20
45.49455883733156
10
-7.2817817071147708
20
45.525977643284108
10
-7.2616212099333204
20
45.558765888965866
10
-7.2440265610004069
20
45.592808420006712
10
-7.2287047675209752
20
45.627293506734688
10
-7.2164144786535527
20
45.663713017210213
10
-7.2063972567833057
20
45.700137502807408
10
-7.1998571878862441
20
45.738983161012925
10
-7.1958901816876439
20
45.777822635434191
10
-7.1960245474412652
20
45.81963381046873
10
-7.1996867792530708
20
45.862339137562174
10
-7.2094282552124467
20
45.910610459423012
10
-7.2290081226142897
20
45.970017928774183
10
-7.2334228258048476
20
45.980669869596682
10
-7.2378260998500954
20
45.991326538125968
10
-7.2422179272901266
20
46.001987926593188
10
-7.2465983326085626
20
46.012654008776622
10
-7.2509615639847365
20
46.023327131792016
10
-7.2553252994934017
20
46.034001490485352
10
-7.2596713431116022
20
46.044681618210241
10
-7.2640059479168562
20
46.05536640188852
10
-7.268329077345788
20
46.066055833395374
10
-7.2726407376401987
20
46.076749897847719
10
-7.3002852868051988
20
46.132860481023805
10
-7.3271494048180354
20
46.174131973613456
10
-7.3544525941978511
20
46.207172746273372
10
-7.383646946035447
20
46.237104040305859
10
-7.4136863207478285
20
46.262041519246779
10
-7.4455662103369216
20
46.285180886064254
10
-7.4782313346680134
20
46.304156594565612
10
-7.5125150744201115
20
46.32153638613498
10
-7.5476070133550524
20
46.335412060482625
10
-7.5840108738629013
20
46.347379703471397
10
-7.6213670955476056
20
46.356654798541904
10
-7.6595883903133588
20
46.363161667756856
10
-7.6990524577260953
20
46.368100643499311
10
-7.739371169401414
20
46.370529180414565
10
-7.7805489494052624
20
46.370578888244069
10
-7.8225820918204372
20
46.368349907188119
10
-7.8656040501614255
20
46.364323483538172
10
-7.909566421868516
20
46.358461583900294
10
-7.9543617499612189
20
46.350550349388342
10
-7.9999749648331946
20
46.340631978437855
10
-8.0821084168995547
20
46.323739271111478
10
-8.1655609426414753
20
46.310668529281394
10
-8.2500550609420529
20
46.300665703323233
10
-8.3354383129346559
20
46.293333016201188
10
-8.421608744713609
20
46.288416764106167
10
-8.5084908726327821
20
46.285738723670192
10
-8.5960251278922506
20
46.28516610545276
10
-8.6841623105503647
20
46.286595787290977
10
-8.7728604753126422
20
46.289945354228564
10
-8.8620829184432282
20
46.295147434122285
10
-8.9517968867031819
20
46.302145929296678
10
-9.0419726524628743
20
46.310893543713519
10
-9.1325829100442952
20
46.321349831299656
10
-9.2236022640861055
20
46.333479971224918
10
-9.3150069209480488
20
46.34725363478141
10
-9.4067743557558696
20
46.362644268769408
10
-9.4988831382990959
20
46.379628494286571
10
-9.5913127583128723
20
46.398185550197688
10
-9.6840434886460027
20
46.418296967072706
10
-9.7770562436009794
20
46.439946207287399
10
-9.7969644746377043
20
46.508675917145041
10
-9.8164940993214316
20
46.577514176360459
10
-9.8356445255810012
20
46.646458880897626
10
-9.8544151822257486
20
46.715507943372032
10
-9.872805490689359
20
46.784659288488413
10
-9.8908149078877408
20
46.853910806988708
10
-9.9084428698221654
20
46.923260396140108
10
-9.9256888587526397
20
46.992705964827536
10
-9.9425523445169866
20
47.062245415010722
10
-9.9590328073005061
20
47.13187662162057
10
-9.8887054152807661
20
47.196484052057073
10
-9.8178669978162265
20
47.259613885813501
10
-9.7465260361647239
20
47.321242336399429
10
-9.6746906148503715
20
47.381343619661848
10
-9.6023683801658724
20
47.439889567594378
10
-9.5295664868389149
20
47.496849283765201
10
-9.4562914815466641
20
47.552188571870026
10
-9.3825491578920523
20
47.605869318196206
10
-9.3083444956161046
20
47.657848715209248
10
-9.2336813709257086
20
47.708078116224726
10
-9.1585623939706746
20
47.756501720530537
10
-9.0829884844214774
20
47.803054572518548
10
-9.0069584505616849
20
47.847659963026636
10
-8.9304682648097486
20
47.890225505171614
10
-8.8535100304520231
20
47.930637212586838
10
-8.7760702767347745
20
47.968750169411663
10
-8.6981270443426926
20
48.004372080043652
10
-8.619644279829151
20
48.037231908276958
10
-8.5405590226796342
20
48.066908336736169
10
-8.4607418829294794
20
48.092608367597876
10
-8.4161508946792356
20
48.10641355510613
10
-8.3732594151393904
20
48.121563806397276
10
-8.3321013270093438
20
48.138088449126016
10
-8.2926649713394482
20
48.155748426803086
10
-8.2549737755311234
20
48.174486815460085
10
-8.2191483139603534
20
48.194788251185017
10
-8.185241074295412
20
48.216738088962423
10
-8.1533129581965529
20
48.240453093471302
10
-8.1232381675990055
20
48.264921720527738
10
-8.0952784008369107
20
48.291374812583385
10
-8.0694724185065532
20
48.319703542280507
10
-8.0457473055722328
20
48.349048005750731
10
-8.0244497347992816
20
48.381045590714386
10
-8.0053464923683517
20
48.413636294703572
10
-7.9889752731372283
20
48.449465625006781
10
-7.9750910439341922
20
48.485954938259077
10
-7.964399302812315
20
48.526376209927804
10
-7.9568837955863021
20
48.568574244312089
10
-7.9537998009795796
20
48.61772203930861
10
-7.957336716079273
20
48.680172890540064
10
-7.958844067157762
20
48.691604485754439
10
-7.9603391533883405
20
48.703037686517618
10
-7.9618219635678198
20
48.714472487326852
10
-7.9632925249266693
20
48.725908862354636
10
-7.9647446763346874
20
48.73734759540045
10
-7.9661969939800663
20
48.74878765218228
10
-7.9676307283959673
20
48.760228702430567
10
-7.9690522098601129
20
48.771671288713605
10
-7.9704614030488088
20
48.783115393593697
10
-7.971858319689872
20
48.79456100764007
10
-7.9840384170641219
20
48.855914604672776
10
-7.9993053126885751
20
48.902732750612486
10
-8.0171265892688695
20
48.941714272101748
10
-8.0375793772647004
20
48.978181735626514
10
-8.0601408908119883
20
49.010044253003471
10
-8.0849455900798812
20
49.040646288601273
10
-8.111586403726859
20
49.067429771936631
10
-8.1402037315455544
20
49.093090645106265
10
-8.1705086526904083
20
49.115575980666918
10
-8.2025746285413756
20
49.136557847593501
10
-8.2362573967422463
20
49.155185403429542
10
-8.2714922309531609
20
49.171362954957544
10
-8.3083332917853063
20
49.186347692130532
10
-8.3466496243649111
20
49.199128728552225
10
-8.3864114392868796
20
49.209834337143377
10
-8.4275892405533863
20
49.218560283427152
10
-8.4701873764675479
20
49.225805958376284
10
-8.5141689378159562
20
49.23152209877172
10
-8.5594854810641383
20
49.235474316308768
10
-8.6061115255186618
20
49.237699475014757
10
-8.6898185022443073
20
49.242640072984017
10
-8.773810409757326
20
49.251613808389379
10
-8.8580143823489923
20
49.263820508406951
10
-8.9423861105738176
20
49.278836488683822
10
-9.0268927755028621
20
49.296390302403985
10
-9.1115075940895256
20
49.316290264177468
10
-9.1962073970416967
20
49.338392689276603
10
-9.2809713490712156
20
49.362585238514185
10
-9.3657802655343776
20
49.388777444418459
10
-9.450616130174561
20
49.416894735831249
10
-9.5354618242040772
20
49.446874446793665
10
-9.620300877410294
20
49.47866319936427
10
-9.70511737826976
20
49.512214857802064
10
-9.7898958133035237
20
49.547489215676521
10
-9.8746210445282507
20
49.584450818105211
10
-9.9592781910114976
20
49.623068189050571
10
-10.04385260069723
20
49.663313199267016
10
-10.128329838590327
20
49.705160483917304
10
-10.212695627597467
20
49.748587100363046
10
-10.296935813546853
20
49.793572132337154
10
-10.298377131257601
20
49.865112563999652
10
-10.299424647410184
20
49.936659854638911
10
-10.300078336763548
20
50.008211820905132
10
-10.300338186044966
20
50.079766296562923
10
-10.300204173983094
20
50.151321129612214
10
-10.299676323866775
20
50.222874139373054
10
-10.298754633784561
20
50.294423149966995
10
-10.297439144034104
20
50.365966010384014
10
-10.29572988554327
20
50.437500551234209
10
-10.293626907420222
20
50.509024589848302
10
-10.208974231317933
20
50.553228508133969
10
-10.124210370263135
20
50.59587291298439
10
-10.039349675841461
20
50.636937025462593
10
-9.9544066305375836
20
50.676398030716186
10
-9.8693959100033783
20
50.714230703515277
10
-9.7843324219356571
20
50.75040704852622
10
-9.6992313398616332
20
50.784895728548719
10
-9.6141081251829625
20
50.817661429369309
10
-9.5289786677095929
20
50.848664091559293
10
-9.4438593020486294
20
50.877857728793259
10
-9.358766991365238
20
50.905189116504701
10
-9.2737194355909196
20
50.930595752951014
10
-9.1887353371289784
20
50.954003230257698
10
-9.1038347180308747
20
50.975321269779059
10
-9.0190394520316541
20
50.994437724148476
10
-8.9343740356488546
20
51.011209130966925
10
-8.8498670257914771
20
51.025444061489793
10
-8.7655537468988438
20
51.03687138298811
10
-8.6814824307169314
20
51.045067841094472
10
-8.5977333350535918
20
51.049233969616694
10
-8.551088703192459
20
51.051027759203286
10
-8.5057375420354617
20
51.054560646752982
10
-8.4617049898455452
20
51.059869728800109
10
-8.4190416570032305
20
51.066721077145935
10
-8.3777849049072515
20
51.075065772280666
10
-8.3379257678251477
20
51.08540313992269
10
-8.2994928535361776
20
51.097829217644787
10
-8.2625147663999083
20
51.112472547762231
10
-8.227131803142262
20
51.128323497930893
10
-8.1932781782925233
20
51.146638703319766
10
-8.1610194999449508
20
51.167323074841988
10
-8.1305078940530144
20
51.189527138912005
10
-8.1016544355575331
20
51.214922214312857
10
-8.0747670255842436
20
51.241458134595625
10
-8.0496803288922703
20
51.271829425844643
10
-8.0268250636132947
20
51.30348189569667
10
-8.0060358401420437
20
51.339758619021424
10
-7.9878547633496257
20
51.3785736326424
10
-7.9721554681340825
20
51.425248560544567
10
-7.9594083950737629
20
51.486486873059924
10
-7.9579056707393097
20
51.497919076055908
10
-7.9563906829776156
20
51.509349657324137
10
-7.9548634227607575
20
51.520778604985892
10
-7.9533239238963311
20
51.532205905053445
10
-7.9517660327835209
20
51.543630717084163
10
-7.9502079588153567
20
51.555056850732164
10
-7.9486316793492895
20
51.566479134995419
10
-7.9470431646210429
20
51.577899730358524
10
-7.945442389099485
20
51.589318614885045
10
-7.9438293651418013
20
51.600735777376237
10
-7.9397149551706878
20
51.663151241491789
10
-7.9423442172064762
20
51.71232546083624
10
-7.9494690859657808
20
51.754591204378151
10
-7.9597864894606829
20
51.795109641639854
10
-7.9733326117471703
20
51.831725818963974
10
-7.9893717223721108
20
51.867705044464756
10
-8.0081726960578425
20
51.90047105181641
10
-8.0291733899516338
20
51.932664262069814
10
-8.0526260621609964
20
51.962226919223717
10
-8.0781689101987304
20
51.990793131541821
10
-8.1058827997574898
20
52.017503710192855
10
-8.1357299771875198
20
52.042249471330287
10
-8.1674373738098929
20
52.066258784223038
10
-8.2011401329535634
20
52.088521313498781
10
-8.2367762831579725
20
52.109153252158613
10
-8.2742925426046359
20
52.1282394693783
10
-8.3135638634311047
20
52.146263462911939
10
-8.3545673432942937
20
52.163168095806057
10
-8.3973168532779123
20
52.178714428638919
10
-8.4417782417104892
20
52.192931475483803
10
-8.521354251475346
20
52.219368686515317
10
-8.6001616292746537
20
52.249775354845944
10
-8.6783370950867464
20
52.283359714447109
10
-8.7559475034390388
20
52.31970104704601
10
-8.8330314137961672
20
52.358528662539435
10
-8.9096125629380705
20
52.3996504764905
10
-8.9857057608116158
20
52.442921702927791
10
-9.0613199587034252
20
52.488228435298289
10
-9.1364600402685134
20
52.535478326254363
10
-9.211127902244689
20
52.58459468223424
10
-9.2853232299116222
20
52.635512540156675
10
-9.3590439266315713
20
52.688176080313418
10
-9.4322865688078643
20
52.742536618243598
10
-9.5050465711428735
20
52.798551306329102
10
-9.5773184940249578
20
52.856181976518847
10
-9.6490961068965078
20
52.915394374219922
10
-9.7203725388016196
20
52.976157536413659
10
-9.7911404105611748
20
53.038443228934504
10
-9.8613918700832457
20
53.102225590067832
10
-9.9311186582413953
20
53.167480759274149
10
-9.9139948381628713
20
53.236956549320034
10
-9.8964888585504962
20
53.306337042695596
10
-9.8786012631180995
20
53.375620122504458
10
-9.8603325969054758
20
53.444803692314778
10
-9.8416833979581266
20
53.513885668596458
10
-9.8226542520121232
20
53.582863951667498
10
-9.8032457201372587
20
53.651736439383548
10
-9.7834584005806597
20
53.720501059344201
10
-9.7632928823079617
20
53.789155732658564
10
-9.742749778959471
20
53.857698357733611
10
-9.6495407551584762
20
53.878486338873202
10
-9.6393105327618205
20
53.880606184321785
42
-0.90916493334975479
0
CIRCLE
5
104
100
AcDbEntity
8
0
100
AcDbCircle
10
-7.6647812191482494
20
56.139197335868715
30
1.7763568394002505e-14
40
1.1499999999999997
0
CIRCLE
5
105
100
AcDbEntity
8
0
100
AcDbCircle
10
2.6996629237073129
20
50.091197864239206
30
1.7763568394002505e-14
40
1.1499999999999997
0
ENDSEC
0
SECTION
2
OBJECTS
0
DICTIONARY
5
C
100
AcDbDictionary
3
ACAD_GROUP
350
D
3
ACAD_MLINESTYLE
350
17
0
DICTIONARY
5
D
100
AcDbDictionary
0
DICTIONARY
5
1A
330
C
100
AcDbDictionary
0
DICTIONARY
5
17
100
AcDbDictionary
0
ENDSEC
0
EOF
